<?xml version="1.0" encoding="utf-8"?>
<svg version="1.1" xmlns:xlink="http://www.w3.org/1999/xlink" width="40px" height="40px" xmlns="http://www.w3.org/2000/svg">
  <g transform="matrix(1 0 0 1 -28 -194 )">
    <path d="M 16.666666666666668 18.333333333333336  L 16.666666666666668 25  L 23.333333333333336 21.66666666666667  L 16.666666666666668 18.333333333333336  Z M 14 16.276041666666664  L 26 9.609375  L 26 23.72395833333333  L 14 30.390625  L 14 16.276041666666664  Z M 32.265625 27.109375  C 33.532986111111114 24.939236111111107  34.166666666666664 22.569444444444446  34.166666666666664 20  C 34.166666666666664 17.430555555555554  33.532986111111114 15.06076388888889  32.265625 12.890625  C 30.998263888888893 10.720486111111107  29.279513888888893 9.001736111111107  27.109375 7.734375  C 24.93923611111111 6.467013888888888  22.569444444444446 5.833333333333335  20 5.833333333333335  C 17.430555555555557 5.833333333333335  15.060763888888891 6.467013888888888  12.890625 7.734375  C 10.72048611111111 9.001736111111107  9.00173611111111 10.720486111111107  7.734375 12.890625  C 6.467013888888889 15.06076388888889  5.833333333333334 17.430555555555554  5.833333333333334 20  C 5.833333333333334 22.569444444444446  6.467013888888889 24.939236111111107  7.734375 27.109375  C 9.00173611111111 29.279513888888886  10.72048611111111 30.99826388888889  12.890625 32.265625  C 15.060763888888891 33.532986111111114  17.430555555555557 34.166666666666664  20 34.166666666666664  C 22.569444444444446 34.166666666666664  24.93923611111111 33.532986111111114  27.109375 32.265625  C 29.279513888888893 30.99826388888889  30.998263888888893 29.279513888888886  32.265625 27.109375  Z M 37.317708333333336 9.9609375  C 39.10590277777777 13.025173611111107  40 16.37152777777777  40 20  C 40 23.62847222222222  39.10590277777777 26.974826388888886  37.317708333333336 30.0390625  C 35.52951388888889 33.103298611111114  33.103298611111114 35.529513888888886  30.0390625 37.317708333333336  C 26.974826388888893 39.10590277777778  23.62847222222222 40  20 40  C 16.37152777777778 40  13.02517361111111 39.10590277777778  9.9609375 37.317708333333336  C 6.896701388888889 35.529513888888886  4.470486111111112 33.103298611111114  2.682291666666667 30.0390625  C 0.8940972222222221 26.974826388888886  0 23.62847222222222  0 20  C 0 16.37152777777777  0.8940972222222221 13.025173611111107  2.682291666666667 9.9609375  C 4.470486111111112 6.896701388888888  6.896701388888889 4.470486111111107  9.9609375 2.682291666666665  C 13.02517361111111 0.8940972222222188  16.37152777777778 0  20 0  C 23.62847222222222 0  26.974826388888893 0.8940972222222188  30.0390625 2.682291666666665  C 33.103298611111114 4.470486111111107  35.52951388888889 6.896701388888888  37.317708333333336 9.9609375  Z " fill-rule="nonzero" fill="#000000" stroke="none" transform="matrix(1 0 0 1 28 194 )" />
  </g>
</svg>