<?xml version="1.0" encoding="utf-8"?>
<svg version="1.1" xmlns:xlink="http://www.w3.org/1999/xlink" width="36px" height="36px" xmlns="http://www.w3.org/2000/svg">
  <g transform="matrix(1 0 0 1 -27 -97 )">
    <path d="M 20.7890625 29.7890625  C 20.9296875 29.6484375  21 29.46875  21 29.25  L 21 24.75  C 21 24.531249999999993  20.9296875 24.351562500000004  20.7890625 24.210937500000004  C 20.6484375 24.070312500000004  20.468750000000004 24.000000000000004  20.25 24.000000000000004  L 15.75 24.000000000000004  C 15.531250000000002 24.000000000000004  15.3515625 24.070312500000004  15.2109375 24.210937500000004  C 15.0703125 24.351562500000004  15 24.531249999999993  15 24.75  L 15 29.25  C 15 29.46875  15.0703125 29.6484375  15.2109375 29.7890625  C 15.3515625 29.9296875  15.531250000000002 30  15.75 30  L 20.25 30  C 20.468750000000004 30  20.6484375 29.9296875  20.7890625 29.7890625  Z M 26.70703125 15.3984375  C 26.902343750000004 14.8203125  27 14.1875  27 13.5  C 27 12.124999999999996  26.56640625 10.851562499999998  25.69921875 9.679687500000002  C 24.83203125 8.5078125  23.750000000000004 7.601562499999998  22.453125 6.9609375  C 21.15625 6.320312499999998  19.828125 5.999999999999998  18.46875 5.999999999999998  C 14.671875 5.999999999999998  11.7734375 7.6640625  9.7734375 10.992187499999998  C 9.539062500000002 11.367187500000002  9.601562500000002 11.695312499999998  9.9609375 11.976562499999998  L 13.0546875 14.320312500000002  C 13.164062500000002 14.4140625  13.3125 14.460937500000002  13.5 14.460937500000002  C 13.750000000000002 14.460937500000002  13.9453125 14.367187499999998  14.0859375 14.179687500000002  C 14.9140625 13.1171875  15.5859375 12.398437499999998  16.1015625 12.0234375  C 16.6328125 11.648437500000002  17.3046875 11.4609375  18.1171875 11.4609375  C 18.8671875 11.4609375  19.53515625 11.664062499999998  20.12109375 12.070312500000002  C 20.70703125 12.476562499999996  21 12.937499999999996  21 13.453124999999998  C 21 14.046875  20.84375 14.5234375  20.53125 14.882812500000002  C 20.218750000000004 15.2421875  19.6875 15.59375  18.9375 15.937500000000002  C 17.953125 16.374999999999996  17.05078125 17.05078125  16.23046875 17.96484375  C 15.41015625 18.87890625  15 19.859375  15 20.906250000000004  L 15 21.750000000000004  C 15 21.96875  15.0703125 22.1484375  15.2109375 22.2890625  C 15.3515625 22.4296875  15.531250000000002 22.5  15.75 22.5  L 20.25 22.5  C 20.468750000000004 22.5  20.6484375 22.4296875  20.7890625 22.2890625  C 20.9296875 22.1484375  21 21.96875  21 21.750000000000004  C 21 21.453125  21.167968750000004 21.06640625  21.50390625 20.589843750000004  C 21.839843750000004 20.11328125  22.265625 19.7265625  22.78125 19.429687500000004  C 23.281250000000004 19.148437500000004  23.664062500000004 18.925781249999996  23.9296875 18.761718750000004  C 24.195312500000004 18.59765625  24.5546875 18.32421875  25.0078125 17.94140625  C 25.460937500000004 17.55859375  25.808593750000004 17.183593749999996  26.05078125 16.81640625  C 26.292968750000004 16.449218749999996  26.511718750000004 15.9765625  26.70703125 15.3984375  Z M 33.5859375 8.96484375  C 35.19531249999999 11.722656249999996  36 14.734374999999995  36 18  C 36 21.265625  35.19531249999999 24.277343749999996  33.5859375 27.03515625  C 31.976562500000004 29.79296875  29.79296875 31.9765625  27.03515625 33.5859375  C 24.277343750000004 35.1953125  21.265625 36  18 36  C 14.734375000000002 36  11.72265625 35.1953125  8.96484375 33.5859375  C 6.207031250000001 31.9765625  4.0234375 29.79296875  2.4140625 27.03515625  C 0.8046874999999999 24.277343749999996  0 21.265625  0 18  C 0 14.734374999999995  0.8046874999999999 11.722656249999996  2.4140625 8.96484375  C 4.0234375 6.20703125  6.207031250000001 4.0234374999999964  8.96484375 2.4140624999999987  C 11.72265625 0.8046874999999969  14.734375000000002 0  18 0  C 21.265625 0  24.277343750000004 0.8046874999999969  27.03515625 2.4140624999999987  C 29.79296875 4.0234374999999964  31.976562500000004 6.20703125  33.5859375 8.96484375  Z " fill-rule="nonzero" fill="#ffffff" stroke="none" transform="matrix(1 0 0 1 27 97 )" />
  </g>
</svg>