<?xml version="1.0" encoding="utf-8"?>
<svg version="1.1" xmlns:xlink="http://www.w3.org/1999/xlink" width="33px" height="26px" xmlns="http://www.w3.org/2000/svg">
  <g transform="matrix(1 0 0 1 -44 -22 )">
    <path d="M 15.390134529147982 19.5  L 16.426008968609864 19.5  L 18.571748878923767 17.357954545454547  L 15.760089686098654 14.551136363636362  L 13.614349775784754 16.69318181818182  L 13.614349775784754 17.72727272727273  L 15.390134529147982 17.72727272727273  L 15.390134529147982 19.5  Z M 24.54652466367713 6.813920454545455  C 24.756165919282516 6.604640151515149  24.76233183856502 6.401515151515149  24.565022421524667 6.204545454545455  C 24.367713004484308 6.007575757575755  24.164237668161437 6.013731060606059  23.954596412556054 6.223011363636364  L 17.480381165919283 12.686079545454545  C 17.2707399103139 12.895359848484848  17.26457399103139 13.098484848484846  17.46188340807175 13.295454545454545  C 17.65919282511211 13.492424242424242  17.86266816143498 13.486268939393936  18.072309417040362 13.276988636363638  L 24.54652466367713 6.813920454545455  Z M 25.67488789237668 16.63778409090909  C 25.921524663677133 16.736268939393938  26.04484304932735 16.91477272727273  26.04484304932735 17.173295454545453  L 26.04484304932735 20.68181818181818  C 26.04484304932735 22.146780303030305  25.523822869955158 23.399384469696972  24.48178251121076 24.43963068181818  C 23.43974215246637 25.479876893939394  22.184977578475337 26  20.71748878923767 26  L 5.3273542600896855 26  C 3.8598654708520184 26  2.6051008968609866 25.479876893939394  1.5630605381165918 24.43963068181818  C 0.5210201793721972 23.399384469696972  0 22.146780303030305  0 20.68181818181818  L 0 5.318181818181819  C 0 3.8532196969696937  0.5210201793721972 2.6006155303030294  1.5630605381165918 1.5603693181818192  C 2.6051008968609866 0.5201231060606035  3.8598654708520184 0  5.3273542600896855 0  L 20.71748878923767 0  C 21.494394618834082 0  22.215807174887892 0.15388257575757436  22.881726457399104 0.46164772727272596  C 23.06670403587444 0.547821969696968  23.177690582959638 0.6893939393939388  23.21468609865471 0.8863636363636356  C 23.251681614349774 1.0956439393939388  23.196188340807176 1.274147727272726  23.048206278026903 1.421875  L 22.141816143497756 2.326704545454545  C 21.969170403587444 2.4990530303030294  21.771860986547086 2.548295454545455  21.54988789237668 2.4744318181818192  C 21.266255605381165 2.4005681818181808  20.98878923766816 2.363636363636364  20.71748878923767 2.363636363636364  L 5.3273542600896855 2.363636363636364  C 4.513452914798206 2.363636363636364  3.8167040358744404 2.6529356060606037  3.2371076233183858 3.2315340909090904  C 2.6575112107623324 3.8101325757575744  2.367713004484305 4.505681818181819  3 5.318181818181819  L 3 20.68181818181818  C 2.367713004484305 21.49431818181818  2.6575112107623324 22.18986742424242  3.2371076233183858 22.76846590909091  C 3.8167040358744404 23.347064393939394  4.513452914798206 23.636363636363637  5.3273542600896855 23.636363636363637  L 20.71748878923767 23.636363636363637  C 21.531390134529147 23.636363636363637  22.228139013452914 23.347064393939394  22.807735426008968 22.76846590909091  C 23.387331838565025 22.18986742424242  23.677130044843047 21.49431818181818  23.677130044843047 20.68181818181818  L 23.677130044843047 18.35511363636364  C 23.677130044843047 18.195075757575754  23.732623318385652 18.05965909090909  23.843609865470853 17.94886363636364  L 25.027466367713004 16.767045454545453  C 25.21244394618834 16.58238636363636  25.428251121076237 16.539299242424242  25.67488789237668 16.63778409090909  Z M 11.838565022421523 15.954545454545455  L 24.269058295964125 3.545454545454545  L 29.596412556053814 8.863636363636365  L 17.165919282511208 21.27272727272727  L 11.838565022421523 21.27272727272727  L 11.838565022421523 15.954545454545455  Z M 33 4.727272727272726  C 33 5.219696969696968  32.827354260089685 5.638257575757574  32.482062780269054 5.982954545454545  L 30.780269058295964 7.681818181818181  L 25.45291479820628 2.363636363636364  L 27.154708520179373 0.664772727272726  C 27.5 0.3200757575757551  27.919282511210763 0.14772727272727404  28.41255605381166 0.14772727272727404  C 28.90582959641256 0.14772727272727404  29.32511210762332 0.3200757575757551  29.670403587443946 0.664772727272726  L 32.482062780269054 3.4715909090909096  C 32.827354260089685 3.8162878787878745  33 4.234848484848484  33 4.727272727272726  Z " fill-rule="nonzero" fill="#000000" stroke="none" transform="matrix(1 0 0 1 44 22 )" />
  </g>
</svg>