<?xml version="1.0" encoding="utf-8"?>
<svg version="1.1" xmlns:xlink="http://www.w3.org/1999/xlink" width="33px" height="26px" xmlns="http://www.w3.org/2000/svg">
  <g transform="matrix(1 0 0 1 -44 -22 )">
    <path d="M 19.056640625 6.65234375  C 19.185546875 6.75390625  19.25 6.883680555555552  19.25 7.041666666666668  L 19.25 14.625  C 19.25 14.78298611111111  19.185546875 14.912760416666664  19.056640625 15.014322916666664  C 18.927734375 15.115885416666664  18.763020833333336 15.166666666666664  18.5625 15.166666666666664  L 11.6875 15.166666666666664  C 11.48697916666667 15.166666666666664  11.322265625 15.115885416666664  11.193359375 15.014322916666664  C 11.064453125 14.912760416666664  11 14.78298611111111  11 14.625  L 11 13.541666666666664  C 11 13.383680555555555  11.064453125 13.25390625  11.193359375 13.15234375  C 11.322265625 13.05078125  11.48697916666667 13  11.6875 13  L 16.5 13  L 16.5 7.041666666666668  C 16.5 6.883680555555552  16.564453125 6.75390625  16.693359375 6.65234375  C 16.822265625000004 6.55078125  16.986979166666668 6.5  17.1875 6.5  L 18.5625 6.5  C 18.763020833333336 6.5  18.927734375 6.55078125  19.056640625 6.65234375  Z M 26.619140625 17.62109375  C 27.664713541666668 16.21050347222222  28.1875 14.67013888888889  28.1875 13  C 28.1875 11.32986111111111  27.664713541666668 9.789496527777777  26.619140625 8.37890625  C 25.573567708333336 6.96831597222222  24.155598958333336 5.85112847222222  22.365234375 5.02734375  C 20.574869791666668 4.203559027777778  18.619791666666668 3.791666666666668  16.5 3.791666666666668  C 14.380208333333334 3.791666666666668  12.425130208333334 4.203559027777778  10.634765625 5.02734375  C 8.844401041666668 5.85112847222222  7.426432291666667 6.96831597222222  6.380859375 8.37890625  C 5.335286458333334 9.789496527777777  4.8125 11.32986111111111  4.8125 13  C 4.8125 14.67013888888889  5.335286458333334 16.21050347222222  6.380859375 17.62109375  C 7.426432291666667 19.031684027777775  8.844401041666668 20.14887152777778  10.634765625 20.97265625  C 12.425130208333334 21.79644097222222  14.380208333333334 22.208333333333332  16.5 22.208333333333332  C 18.619791666666668 22.208333333333332  20.574869791666668 21.79644097222222  22.365234375 20.97265625  C 24.155598958333336 20.14887152777778  25.573567708333336 19.031684027777775  26.619140625 17.62109375  Z M 30.787109375 6.474609375  C 32.262369791666664 8.46636284722222  33 10.641493055555552  33 13  C 33 15.358506944444445  32.262369791666664 17.533637152777775  30.787109375 19.525390625  C 29.311848958333336 21.51714409722222  27.310221354166668 23.09418402777778  24.7822265625 24.256510416666668  C 22.254231770833336 25.418836805555557  19.493489583333336 26  16.5 26  C 13.506510416666668 26  10.745768229166668 25.418836805555557  8.2177734375 24.256510416666668  C 5.689778645833334 23.09418402777778  3.688151041666667 21.51714409722222  2.212890625 19.525390625  C 0.7376302083333333 17.533637152777775  0 15.358506944444445  0 13  C 0 10.641493055555552  0.7376302083333333 8.46636284722222  2.212890625 6.474609375  C 3.688151041666667 4.482855902777778  5.689778645833334 2.9058159722222197  8.2177734375 1.7434895833333324  C 10.745768229166668 0.5811631944444422  13.506510416666668 0  16.5 0  C 19.493489583333336 0  22.254231770833336 0.5811631944444422  24.7822265625 1.7434895833333324  C 27.310221354166668 2.9058159722222197  29.311848958333336 4.482855902777778  30.787109375 6.474609375  Z " fill-rule="nonzero" fill="#000000" stroke="none" transform="matrix(1 0 0 1 44 22 )" />
  </g>
</svg>