<?xml version="1.0" encoding="utf-8"?>
<svg version="1.1" xmlns:xlink="http://www.w3.org/1999/xlink" width="26px" height="22px" xmlns="http://www.w3.org/2000/svg">
  <g transform="matrix(1 0 0 1 -49 -24 )">
    <path d="M 10.579081632653061 20.11796875  C 10.568027210884354 20.180989583333336  10.579081632653061 20.258333333333333  10.612244897959183 20.35  C 10.612244897959183 20.395833333333336  10.617772108843537 20.510416666666664  10.628826530612244 20.69375  C 10.639880952380954 20.877083333333335  10.64264455782313 21.02890625  10.637117346938776 21.14921875  C 10.631590136054424 21.26953125  10.615008503401361 21.404166666666665  10.587372448979592 21.553125  C 10.559736394557824 21.702083333333334  10.504464285714286 21.813802083333336  10.42155612244898 21.88828125  C 10.338647959183675 21.962760416666665  10.225340136054424 22  10.081632653061224 22  L 4.775510204081633 22  C 3.460034013605443 22  2.335246598639456 21.515885416666666  1.4011479591836735 20.54765625  C 0.46704931972789115 19.579427083333336  0 18.413541666666667  0 17.05  L 0 4.949999999999999  C 0 3.5864583333333298  0.46704931972789115 2.420572916666666  1.4011479591836735 1.4523437500000005  C 2.335246598639456 0.48411458333333024  3.460034013605443 0  4.775510204081633 0  L 10.081632653061224 0  C 10.225340136054424 0  10.349702380952381 0.05442708333333024  10.454719387755102 0.1632812500000005  C 10.559736394557824 0.27213541666666585  10.612244897959183 0.40104166666666585  10.612244897959183 0.5500000000000005  C 10.612244897959183 0.5958333333333312  10.617772108843537 0.7104166666666654  10.628826530612244 0.8937500000000005  C 10.639880952380954 1.0770833333333307  10.64264455782313 1.228906250000001  10.637117346938776 1.349218749999999  C 10.631590136054424 1.4695312499999995  10.615008503401361 1.6041666666666659  10.587372448979592 1.7531250000000005  C 10.559736394557824 1.9020833333333302  10.504464285714286 2.0138020833333314  10.42155612244898 2.088281250000001  C 10.338647959183675 2.162760416666666  10.225340136054424 2.1999999999999993  10.081632653061224 2.1999999999999993  L 4.775510204081633 2.1999999999999993  C 4.045918367346939 2.1999999999999993  3.4213435374149666 2.4692708333333298  2.9017857142857144 3.0078125  C 2.3822278911564627 3.5463541666666654  2.1224489795918364 4.193750000000001  2.1224489795918364 4.949999999999999  L 2.1224489795918364 17.05  C 2.1224489795918364 17.80625  2.3822278911564627 18.45364583333333  2.9017857142857144 18.9921875  C 3.4213435374149666 19.530729166666667  4.045918367346939 19.8  4.775510204081633 19.8  L 9.551020408163266 19.8  L 9.733418367346939 19.8  L 9.948979591836734 19.8  C 9.948979591836734 19.8  10.012542517006803 19.805729166666666  10.139668367346939 19.8171875  C 10.266794217687076 19.828645833333333  10.330357142857142 19.845833333333335  10.330357142857142 19.86875  C 10.330357142857142 19.891666666666666  10.374574829931973 19.923177083333336  10.463010204081632 19.96328125  C 10.551445578231293 20.003385416666667  10.59013605442177 20.054947916666666  10.579081632653061 20.11796875  Z M 25.684948979591837 10.2265625  C 25.89498299319728 10.444270833333333  26 10.702083333333333  26 11  C 26 11.297916666666664  25.89498299319728 11.555729166666664  25.684948979591837 11.7734375  L 16.664540816326532 21.1234375  C 16.454506802721088 21.341145833333336  16.205782312925173 21.45  15.918367346938776 21.45  C 15.630952380952383 21.45  15.382227891156464 21.341145833333336  15.17219387755102 21.1234375  C 14.96215986394558 20.905729166666667  14.857142857142856 20.647916666666667  14.857142857142856 20.35  L 14.857142857142856 15.399999999999999  L 7.428571428571428 15.399999999999999  C 7.141156462585034 15.399999999999999  6.892431972789116 15.291145833333333  6.682397959183674 15.0734375  C 6.472363945578231 14.855729166666665  6.36734693877551 14.597916666666665  6.36734693877551 14.3  L 6.36734693877551 7.699999999999999  C 6.36734693877551 7.40208333333333  6.472363945578231 7.14427083333333  6.682397959183674 6.926562499999999  C 6.892431972789116 6.708854166666667  7.141156462585034 6.600000000000001  7.428571428571428 6.600000000000001  L 14.857142857142856 6.600000000000001  L 14.857142857142856 1.649999999999999  C 14.857142857142856 1.3520833333333298  14.96215986394558 1.0942708333333298  15.17219387755102 0.876562499999999  C 15.382227891156464 0.6588541666666659  15.630952380952383 0.5500000000000005  15.918367346938776 0.5500000000000005  C 16.205782312925173 0.5500000000000005  16.454506802721088 0.6588541666666659  16.664540816326532 0.876562499999999  L 25.684948979591837 10.2265625  Z " fill-rule="nonzero" fill="#000000" stroke="none" transform="matrix(1 0 0 1 49 24 )" />
  </g>
</svg>