<?xml version="1.0" encoding="utf-8"?>
<svg version="1.1" xmlns:xlink="http://www.w3.org/1999/xlink" width="46px" height="37px" xmlns="http://www.w3.org/2000/svg">
  <g transform="matrix(1 0 0 1 -29 -321 )">
    <path d="M 13.346443965517242 33.013346354166664  C 13.966056034482758 32.4111328125  14.275862068965518 31.684461805555554  14.275862068965518 30.833333333333336  C 14.275862068965518 29.982204861111114  13.966056034482758 29.255533854166664  13.346443965517242 28.6533203125  C 12.726831896551724 28.051106770833336  11.979166666666668 27.75  11.10344827586207 27.75  C 10.227729885057473 27.75  9.480064655172415 28.051106770833336  8.860452586206897 28.6533203125  C 8.240840517241379 29.255533854166664  7.931034482758621 29.982204861111114  7.931034482758621 30.833333333333336  C 7.931034482758621 31.684461805555554  8.240840517241379 32.4111328125  8.860452586206897 33.013346354166664  C 9.480064655172415 33.615559895833336  10.227729885057473 33.916666666666664  11.10344827586207 33.916666666666664  C 11.979166666666668 33.916666666666664  12.726831896551724 33.615559895833336  13.346443965517242 33.013346354166664  Z M 4.758620689655173 17.77734375  L 4.758620689655173 18.5  L 14.275862068965518 18.5  L 14.275862068965518 12.333333333333334  L 10.359913793103448 12.333333333333334  C 10.12859195402299 12.365451388888888  9.946839080459771 12.437717013888888  9.814655172413794 12.550130208333334  L 4.981681034482759 17.247395833333336  C 4.86602011494253 17.440104166666664  4.791666666666668 17.61675347222222  4.758620689655173 17.77734375  Z M 35.55334051724138 33.013346354166664  C 36.1729525862069 32.4111328125  36.48275862068966 31.684461805555554  36.48275862068966 30.833333333333336  C 36.48275862068966 29.982204861111114  36.1729525862069 29.255533854166664  35.55334051724138 28.6533203125  C 34.933728448275865 28.051106770833336  34.18606321839081 27.75  33.310344827586206 27.75  C 32.43462643678161 27.75  31.68696120689655 28.051106770833336  31.067349137931036 28.6533203125  C 30.447737068965516 29.255533854166664  30.137931034482758 29.982204861111114  30.137931034482758 30.833333333333336  C 30.137931034482758 31.684461805555554  30.447737068965516 32.4111328125  31.067349137931036 33.013346354166664  C 31.68696120689655 33.615559895833336  32.43462643678161 33.916666666666664  33.310344827586206 33.916666666666664  C 34.18606321839081 33.916666666666664  34.933728448275865 33.615559895833336  35.55334051724138 33.013346354166664  Z M 39.432112068965516 15.199869791666666  C 39.580818965517246 15.055338541666666  39.6551724137931 14.870659722222221  39.6551724137931 14.645833333333334  L 39.6551724137931 10.020833333333334  C 39.6551724137931 9.79600694444444  39.580818965517246 9.611328125  39.432112068965516 9.466796875  C 39.283405172413794 9.322265625  39.0933908045977 9.25  38.862068965517246 9.25  L 33.310344827586206 9.25  L 33.310344827586206 3.854166666666665  C 33.310344827586206 3.629340277777774  33.23599137931034 3.444661458333335  33.08728448275862 3.300130208333335  C 32.9385775862069 3.155598958333335  32.74856321839081 3.083333333333335  32.51724137931034 3.083333333333335  L 27.75862068965517 3.083333333333335  C 27.527298850574713 3.083333333333335  27.337284482758623 3.155598958333335  27.1885775862069 3.300130208333335  C 27.03987068965517 3.444661458333335  26.96551724137931 3.629340277777774  26.96551724137931 3.854166666666665  L 26.96551724137931 9.25  L 21.413793103448274 9.25  C 21.182471264367816 9.25  20.992456896551726 9.322265625  20.84375 9.466796875  C 20.695043103448274 9.611328125  20.620689655172413 9.79600694444444  20.620689655172413 10.020833333333334  L 20.620689655172413 14.645833333333334  C 20.620689655172413 14.870659722222221  20.695043103448274 15.055338541666666  20.84375 15.199869791666666  C 20.992456896551726 15.344401041666666  21.182471264367816 15.416666666666666  21.413793103448274 15.416666666666666  L 26.96551724137931 15.416666666666666  L 26.96551724137931 20.8125  C 26.96551724137931 21.037326388888886  27.03987068965517 21.222005208333332  27.1885775862069 21.366536458333332  C 27.337284482758623 21.511067708333332  27.527298850574713 21.583333333333332  27.75862068965517 21.583333333333332  L 32.51724137931034 21.583333333333332  C 32.74856321839081 21.583333333333332  32.9385775862069 21.511067708333332  33.08728448275862 21.366536458333332  C 33.23599137931034 21.222005208333332  33.310344827586206 21.037326388888886  33.310344827586206 20.8125  L 33.310344827586206 15.416666666666666  L 38.862068965517246 15.416666666666666  C 39.0933908045977 15.416666666666666  39.283405172413794 15.344401041666666  39.432112068965516 15.199869791666666  Z M 45.529094827586206 0.4576822916666653  C 45.843031609195414 0.7628038194444394  46.00000000000001 1.1241319444444393  46 1.5416666666666652  L 46 29.291666666666664  C 46.00000000000001 29.709201388888886  45.843031609195414 30.070529513888886  45.529094827586206 30.375651041666664  C 45.21515804597701 30.680772569444446  44.8433908045977 30.833333333333336  44.41379310344828 30.833333333333336  L 39.6551724137931 30.833333333333336  C 39.6551724137931 32.53559027777778  39.03556034482759 33.988932291666664  37.79633620689655 35.193359375  C 36.557112068965516 36.397786458333336  35.06178160919541 37  33.310344827586206 37  C 31.558908045977013 37  30.0635775862069 36.397786458333336  28.824353448275865 35.193359375  C 27.58512931034483 33.988932291666664  26.96551724137931 32.53559027777778  26.96551724137931 30.833333333333336  L 17.448275862068964 30.833333333333336  C 17.448275862068964 32.53559027777778  16.82866379310345 33.988932291666664  15.589439655172415 35.193359375  C 14.350215517241379 36.397786458333336  12.854885057471266 37  11.10344827586207 37  C 9.352011494252874 37  7.856681034482759 36.397786458333336  6.617456896551725 35.193359375  C 5.3782327586206895 33.988932291666664  4.758620689655173 32.53559027777778  4.758620689655173 30.833333333333336  L 1.5862068965517242 30.833333333333336  C 1.1566091954022995 30.833333333333336  0.784841954022989 30.680772569444446  0.4709051724137931 30.375651041666664  C 0.15696839080459793 30.070529513888886  0 29.709201388888886  0 29.291666666666664  C 0 28.874131944444446  0.15696839080459793 28.512803819444446  0.4709051724137931 28.207682291666664  C 0.784841954022989 27.902560763888886  1.1566091954022995 27.75  2 27.75  L 2 17.729166666666664  C 1.5862068965517242 17.311631944444443  1.6936063218390807 16.845920138888886  1.9084051724137931 16.33203125  C 2.123204022988506 15.818142361111109  2.38757183908046 15.408637152777779  2.7015086206896552 15.103515625  L 7.608836206896552 10.333984375  C 7.922772988505749 10.028862847222221  8.3441091954023 9.771918402777775  8.872844827586206 9.563151041666666  C 9.401580459770116 9.354383680555552  9.880747126436782 9.25  10.310344827586206 9.25  L 14.275862068965518 9.25  L 14.275862068965518 1.5416666666666652  C 14.275862068965518 1.1241319444444393  14.432830459770116 0.7628038194444394  14.746767241379311 0.4576822916666653  C 15.060704022988507 0.15256076388888706  15.432471264367818 0  15.862068965517242 0  L 44.41379310344828 0  C 44.8433908045977 0  45.21515804597701 0.15256076388888706  45.529094827586206 0.4576822916666653  Z " fill-rule="nonzero" fill="#000000" stroke="none" transform="matrix(1 0 0 1 29 321 )" />
  </g>
</svg>