<?xml version="1.0" encoding="utf-8"?>
<svg version="1.1" xmlns:xlink="http://www.w3.org/1999/xlink" width="98px" height="66px" xmlns="http://www.w3.org/2000/svg">
  <defs>
    <mask fill="white" id="clip14">
      <path d="M 24.5 82.5  L 24.5 17.5  L 121.5 17.5  L 121.5 82.5  L 24.5 82.5  " fill-rule="evenodd" />
    </mask>
  </defs>
  <g transform="matrix(1 0 0 1 -24 -17 )">
    <path d="M 24 17  L 122 17  L 122 83  L 24 83  L 24 17  " fill-rule="nonzero" fill="#cccccc" stroke="none" mask="url(#clip14)" />
    <path d="M 29 22  L 117 22  L 117 78  L 29 78  L 29 22  " fill-rule="nonzero" fill="#ffffff" stroke="none" mask="url(#clip14)" />
    <path d="M 79.91000000000001 36.8  C 77.138 36.8  74.96000000000001 34.622  74.96000000000001 31.849999999999998  C 74.96000000000001 29.078  77.138 26.9  79.91000000000001 26.9  C 82.68200000000002 26.9  84.86000000000001 29.078  84.86000000000001 31.849999999999998  C 84.86000000000001 34.622  82.68200000000002 36.8  79.91000000000001 36.8  " fill-rule="nonzero" fill="#cccccc" stroke="none" mask="url(#clip14)" />
    <path d="M 31 77  L 31 47.849999999999994  L 52.25 34.599999999999994  L 82 55.58367346938776  L 99 42.55  L 116 55.58367346938776  L 116 77  L 31 77  " fill-rule="nonzero" fill="#169bd5" stroke="none" mask="url(#clip14)" />
    <path d="M 25 82  L 25 18  L 121 18  L 121 82  L 25 82  Z " stroke-width="2" stroke="#ffffff" fill="none" mask="url(#clip14)" />
  </g>
</svg>