<?xml version="1.0" encoding="utf-8"?>
<svg version="1.1" xmlns:xlink="http://www.w3.org/1999/xlink" width="27px" height="26px" xmlns="http://www.w3.org/2000/svg">
  <defs>
    <mask fill="white" id="clip12">
      <path d="M 26.314453125 1.16796875  C 26.771484375 1.3598090277777775  27 1.6927083333333324  27 2.166666666666668  L 27 9.75  C 27 10.043402777777777  26.888671875 10.297309027777777  26.666015625 10.51171875  C 26.443359375000004 10.726128472222223  26.179687500000004 10.833333333333332  25.875 10.833333333333332  L 18 10.833333333333332  C 17.5078125 10.833333333333332  17.162109375 10.60763888888889  16.962890625 10.15625  C 16.763671875 9.716145833333332  16.845703125000004 9.326822916666668  17.208984375 8.98828125  L 19.634765625 6.65234375  C 17.900390625000004 5.106336805555552  15.855468750000002 4.333333333333332  13.5 4.333333333333332  C 12.281250000000002 4.333333333333332  11.1181640625 4.561848958333332  10.0107421875 5.018880208333332  C 8.9033203125 5.475911458333332  7.945312499999999 6.09375  7.136718750000001 6.872395833333332  C 6.328125 7.651041666666668  5.6865234375 8.573567708333332  5.2119140625 9.639973958333332  C 4.7373046875 10.706380208333332  4.5 11.826388888888888  4.5 13  C 4.5 14.17361111111111  4.7373046875 15.293619791666664  5.2119140625 16.360026041666664  C 5.6865234375 17.426432291666664  6.328125 18.348958333333336  7.136718750000001 19.127604166666664  C 7.945312499999999 19.90625  8.9033203125 20.524088541666668  10.0107421875 20.981119791666668  C 11.1181640625 21.438151041666668  12.281250000000002 21.666666666666668  13.5 21.666666666666668  C 14.89453125 21.666666666666668  16.212890625 21.37326388888889  17.455078125 20.786458333333332  C 18.697265625000004 20.19965277777778  19.746093750000004 19.370225694444446  20.6015625 18.298177083333336  C 20.68359375 18.18532986111111  20.818359375000004 18.117621527777775  21.005859375 18.095052083333336  C 21.181640625 18.095052083333336  21.328125000000004 18.145833333333336  21.4453125 18.247395833333336  L 23.853515625 20.583333333333332  C 23.958984375 20.67361111111111  24.0146484375 20.78927951388889  24.0205078125 20.930338541666668  C 24.0263671875 21.071397569444443  23.982421875000004 21.198350694444443  23.888671875 21.311197916666668  C 22.611328125000004 22.80078125  21.064453125000004 23.95464409722222  19.248046875 24.772786458333332  C 17.431640625000004 25.590928819444443  15.515625 26  13.5 26  C 11.671875 26  9.925781250000002 25.65581597222222  8.26171875 24.967447916666668  C 6.597656250000001 24.27907986111111  5.162109375000001 23.35373263888889  3.955078125 22.19140625  C 2.748046875 21.02907986111111  1.7871093750000002 19.64670138888889  1.0722656250000002 18.044270833333336  C 0.3574218750000001 16.441840277777775  0 14.760416666666664  0 13  C 0 11.239583333333332  0.3574218750000001 9.558159722222223  1.0722656250000002 7.955729166666668  C 1.7871093750000002 6.35329861111111  2.748046875 4.9709201388888875  3.955078125 3.80859375  C 5.162109375000001 2.64626736111111  6.597656250000001 1.7209201388888873  8.26171875 1.0325520833333324  C 9.925781250000002 0.34418402777777746  11.671875 0  13.5 0  C 15.222656250000002 0  16.889648437500004 0.31315104166666763  18.5009765625 0.939453125  C 20.1123046875 1.5657552083333324  21.544921875000004 2.4487847222222197  22.798828125 3.588541666666668  L 25.083984375 1.4049479166666676  C 25.423828125 1.0551215277777775  25.833984375 0.9761284722222197  26.314453125 1.16796875  Z " fill-rule="evenodd" />
    </mask>
  </defs>
  <g transform="matrix(1 0 0 1 -4 -7 )">
    <path d="M 26.314453125 1.16796875  C 26.771484375 1.3598090277777775  27 1.6927083333333324  27 2.166666666666668  L 27 9.75  C 27 10.043402777777777  26.888671875 10.297309027777777  26.666015625 10.51171875  C 26.443359375000004 10.726128472222223  26.179687500000004 10.833333333333332  25.875 10.833333333333332  L 18 10.833333333333332  C 17.5078125 10.833333333333332  17.162109375 10.60763888888889  16.962890625 10.15625  C 16.763671875 9.716145833333332  16.845703125000004 9.326822916666668  17.208984375 8.98828125  L 19.634765625 6.65234375  C 17.900390625000004 5.106336805555552  15.855468750000002 4.333333333333332  13.5 4.333333333333332  C 12.281250000000002 4.333333333333332  11.1181640625 4.561848958333332  10.0107421875 5.018880208333332  C 8.9033203125 5.475911458333332  7.945312499999999 6.09375  7.136718750000001 6.872395833333332  C 6.328125 7.651041666666668  5.6865234375 8.573567708333332  5.2119140625 9.639973958333332  C 4.7373046875 10.706380208333332  4.5 11.826388888888888  4.5 13  C 4.5 14.17361111111111  4.7373046875 15.293619791666664  5.2119140625 16.360026041666664  C 5.6865234375 17.426432291666664  6.328125 18.348958333333336  7.136718750000001 19.127604166666664  C 7.945312499999999 19.90625  8.9033203125 20.524088541666668  10.0107421875 20.981119791666668  C 11.1181640625 21.438151041666668  12.281250000000002 21.666666666666668  13.5 21.666666666666668  C 14.89453125 21.666666666666668  16.212890625 21.37326388888889  17.455078125 20.786458333333332  C 18.697265625000004 20.19965277777778  19.746093750000004 19.370225694444446  20.6015625 18.298177083333336  C 20.68359375 18.18532986111111  20.818359375000004 18.117621527777775  21.005859375 18.095052083333336  C 21.181640625 18.095052083333336  21.328125000000004 18.145833333333336  21.4453125 18.247395833333336  L 23.853515625 20.583333333333332  C 23.958984375 20.67361111111111  24.0146484375 20.78927951388889  24.0205078125 20.930338541666668  C 24.0263671875 21.071397569444443  23.982421875000004 21.198350694444443  23.888671875 21.311197916666668  C 22.611328125000004 22.80078125  21.064453125000004 23.95464409722222  19.248046875 24.772786458333332  C 17.431640625000004 25.590928819444443  15.515625 26  13.5 26  C 11.671875 26  9.925781250000002 25.65581597222222  8.26171875 24.967447916666668  C 6.597656250000001 24.27907986111111  5.162109375000001 23.35373263888889  3.955078125 22.19140625  C 2.748046875 21.02907986111111  1.7871093750000002 19.64670138888889  1.0722656250000002 18.044270833333336  C 0.3574218750000001 16.441840277777775  0 14.760416666666664  0 13  C 0 11.239583333333332  0.3574218750000001 9.558159722222223  1.0722656250000002 7.955729166666668  C 1.7871093750000002 6.35329861111111  2.748046875 4.9709201388888875  3.955078125 3.80859375  C 5.162109375000001 2.64626736111111  6.597656250000001 1.7209201388888873  8.26171875 1.0325520833333324  C 9.925781250000002 0.34418402777777746  11.671875 0  13.5 0  C 15.222656250000002 0  16.889648437500004 0.31315104166666763  18.5009765625 0.939453125  C 20.1123046875 1.5657552083333324  21.544921875000004 2.4487847222222197  22.798828125 3.588541666666668  L 25.083984375 1.4049479166666676  C 25.423828125 1.0551215277777775  25.833984375 0.9761284722222197  26.314453125 1.16796875  Z " fill-rule="nonzero" fill="#003366" stroke="none" transform="matrix(1 0 0 1 4 7 )" />
    <path d="M 26.314453125 1.16796875  C 26.771484375 1.3598090277777775  27 1.6927083333333324  27 2.166666666666668  L 27 9.75  C 27 10.043402777777777  26.888671875 10.297309027777777  26.666015625 10.51171875  C 26.443359375000004 10.726128472222223  26.179687500000004 10.833333333333332  25.875 10.833333333333332  L 18 10.833333333333332  C 17.5078125 10.833333333333332  17.162109375 10.60763888888889  16.962890625 10.15625  C 16.763671875 9.716145833333332  16.845703125000004 9.326822916666668  17.208984375 8.98828125  L 19.634765625 6.65234375  C 17.900390625000004 5.106336805555552  15.855468750000002 4.333333333333332  13.5 4.333333333333332  C 12.281250000000002 4.333333333333332  11.1181640625 4.561848958333332  10.0107421875 5.018880208333332  C 8.9033203125 5.475911458333332  7.945312499999999 6.09375  7.136718750000001 6.872395833333332  C 6.328125 7.651041666666668  5.6865234375 8.573567708333332  5.2119140625 9.639973958333332  C 4.7373046875 10.706380208333332  4.5 11.826388888888888  4.5 13  C 4.5 14.17361111111111  4.7373046875 15.293619791666664  5.2119140625 16.360026041666664  C 5.6865234375 17.426432291666664  6.328125 18.348958333333336  7.136718750000001 19.127604166666664  C 7.945312499999999 19.90625  8.9033203125 20.524088541666668  10.0107421875 20.981119791666668  C 11.1181640625 21.438151041666668  12.281250000000002 21.666666666666668  13.5 21.666666666666668  C 14.89453125 21.666666666666668  16.212890625 21.37326388888889  17.455078125 20.786458333333332  C 18.697265625000004 20.19965277777778  19.746093750000004 19.370225694444446  20.6015625 18.298177083333336  C 20.68359375 18.18532986111111  20.818359375000004 18.117621527777775  21.005859375 18.095052083333336  C 21.181640625 18.095052083333336  21.328125000000004 18.145833333333336  21.4453125 18.247395833333336  L 23.853515625 20.583333333333332  C 23.958984375 20.67361111111111  24.0146484375 20.78927951388889  24.0205078125 20.930338541666668  C 24.0263671875 21.071397569444443  23.982421875000004 21.198350694444443  23.888671875 21.311197916666668  C 22.611328125000004 22.80078125  21.064453125000004 23.95464409722222  19.248046875 24.772786458333332  C 17.431640625000004 25.590928819444443  15.515625 26  13.5 26  C 11.671875 26  9.925781250000002 25.65581597222222  8.26171875 24.967447916666668  C 6.597656250000001 24.27907986111111  5.162109375000001 23.35373263888889  3.955078125 22.19140625  C 2.748046875 21.02907986111111  1.7871093750000002 19.64670138888889  1.0722656250000002 18.044270833333336  C 0.3574218750000001 16.441840277777775  0 14.760416666666664  0 13  C 0 11.239583333333332  0.3574218750000001 9.558159722222223  1.0722656250000002 7.955729166666668  C 1.7871093750000002 6.35329861111111  2.748046875 4.9709201388888875  3.955078125 3.80859375  C 5.162109375000001 2.64626736111111  6.597656250000001 1.7209201388888873  8.26171875 1.0325520833333324  C 9.925781250000002 0.34418402777777746  11.671875 0  13.5 0  C 15.222656250000002 0  16.889648437500004 0.31315104166666763  18.5009765625 0.939453125  C 20.1123046875 1.5657552083333324  21.544921875000004 2.4487847222222197  22.798828125 3.588541666666668  L 25.083984375 1.4049479166666676  C 25.423828125 1.0551215277777775  25.833984375 0.9761284722222197  26.314453125 1.16796875  Z " stroke-width="2" stroke="#ffffff" fill="none" transform="matrix(1 0 0 1 4 7 )" mask="url(#clip12)" />
  </g>
</svg>