<?xml version="1.0" encoding="utf-8"?>
<svg version="1.1" xmlns:xlink="http://www.w3.org/1999/xlink" width="29px" height="28px" xmlns="http://www.w3.org/2000/svg">
  <g transform="matrix(1 0 0 1 -333 -670 )">
    <path d="M 28.263671875 1.2578125  C 28.754557291666668 1.4644097222222219  29 1.8229166666666656  29 2.3333333333333344  L 29 10.5  C 29 10.815972222222221  28.88042534722222 11.089409722222221  28.641276041666668 11.3203125  C 28.402126736111114 11.551215277777779  28.118923611111114 11.666666666666666  27.791666666666668 11.666666666666666  L 19.333333333333332 11.666666666666666  C 18.8046875 11.666666666666666  18.43337673611111 11.423611111111112  18.219401041666668 10.9375  C 18.005425347222225 10.463541666666666  18.093532986111114 10.044270833333334  18.483723958333332 9.6796875  L 21.089192708333332 7.1640625  C 19.226345486111114 5.499131944444441  17.029947916666668 4.666666666666666  14.5 4.666666666666666  C 13.190972222222223 4.666666666666666  11.941731770833334 4.912760416666666  10.752278645833334 5.404947916666666  C 9.562825520833334 5.897135416666666  8.533854166666666 6.5625  7.665364583333334 7.401041666666666  C 6.796875 8.239583333333334  6.107747395833333 9.233072916666666  5.597981770833333 10.381510416666666  C 5.088216145833333 11.529947916666666  4.833333333333333 12.736111111111109  4.833333333333333 14  C 4.833333333333333 15.263888888888888  5.088216145833333 16.470052083333332  5.597981770833333 17.618489583333332  C 6.107747395833333 18.766927083333332  6.796875 19.760416666666668  7.665364583333334 20.598958333333332  C 8.533854166666666 21.4375  9.562825520833334 22.102864583333336  10.752278645833334 22.595052083333336  C 11.941731770833334 23.087239583333336  13.190972222222223 23.333333333333336  14.5 23.333333333333336  C 15.997829861111112 23.333333333333336  17.41384548611111 23.017361111111114  18.748046875 22.385416666666664  C 20.082248263888893 21.75347222222222  21.208767361111114 20.860243055555557  22.127604166666668 19.705729166666668  C 22.215711805555557 19.584201388888886  22.360460069444446 19.511284722222218  22.561848958333332 19.486979166666668  C 22.750651041666668 19.486979166666668  22.907986111111114 19.541666666666668  23.033854166666668 19.651041666666668  L 25.620442708333332 22.166666666666664  C 25.733723958333332 22.263888888888886  25.793511284722225 22.388454861111114  25.7998046875 22.540364583333336  C 25.80609809027778 22.692274305555554  25.758897569444446 22.828993055555554  25.658203125 22.950520833333336  C 24.286241319444446 24.5546875  22.624782986111114 25.79730902777778  20.673828125 26.678385416666664  C 18.722873263888893 27.559461805555554  16.664930555555557 28  14.5 28  C 12.536458333333334 28  10.661024305555557 27.62934027777778  8.873697916666666 26.888020833333336  C 7.086371527777779 26.146701388888886  5.544487847222223 25.150173611111114  4.248046875 23.8984375  C 2.951605902777778 22.646701388888886  1.9194878472222225 21.157986111111114  1.1516927083333335 19.432291666666668  C 0.38389756944444453 17.706597222222218  0 15.895833333333332  0 14  C 0 12.104166666666666  0.38389756944444453 10.293402777777779  1.1516927083333335 8.567708333333334  C 1.9194878472222225 6.8420138888888875  2.951605902777778 5.353298611111109  4.248046875 4.1015625  C 5.544487847222223 2.8498263888888875  7.086371527777779 1.8532986111111094  8.873697916666666 1.1119791666666656  C 10.661024305555557 0.3706597222222219  12.536458333333334 0  14.5 0  C 16.350260416666668 0  18.140733506944446 0.33723958333333437  19.871419270833332 1.01171875  C 21.602105034722225 1.6861979166666656  23.140842013888893 2.637152777777775  24.487630208333332 3.8645833333333344  L 26.942057291666668 1.5130208333333344  C 27.30707465277778 1.1362847222222219  27.747612847222225 1.051215277777775  28.263671875 1.2578125  Z " fill-rule="nonzero" fill="#d7d7d7" stroke="none" transform="matrix(1 0 0 1 333 670 )" />
  </g>
</svg>