<?xml version="1.0" encoding="utf-8"?>
<svg version="1.1" xmlns:xlink="http://www.w3.org/1999/xlink" width="35px" height="35px" xmlns="http://www.w3.org/2000/svg">
  <g transform="matrix(1 0 0 1 0 -1 )">
    <path d="M 17.5 1  C 27.3 1  35 8.7  35 18.5  C 35 28.3  27.3 36  17.5 36  C 7.699999999999999 36  0 28.3  0 18.5  C 0 8.7  7.699999999999999 1  17.5 1  Z " fill-rule="nonzero" fill="#ffffff" stroke="none" />
    <path d="M 17.5 1.5  C 27.02 1.5  34.5 8.979999999999999  34.5 18.5  C 34.5 28.02  27.02 35.5  17.5 35.5  C 7.979999999999999 35.5  0.5 28.02  0.5 18.5  C 0.5 8.979999999999999  7.979999999999999 1.5  17.5 1.5  Z " stroke-width="1" stroke="#797979" fill="none" />
  </g>
</svg>