<?xml version="1.0" encoding="utf-8"?>
<svg version="1.1" xmlns:xlink="http://www.w3.org/1999/xlink" width="21px" height="21px" xmlns="http://www.w3.org/2000/svg">
  <g transform="matrix(1 0 0 1 0 -1 )">
    <path d="M 10.5 1  C 16.38 1  21 5.619999999999999  21 11.5  C 21 17.38  16.38 22  10.5 22  C 4.619999999999999 22  0 17.38  0 11.5  C 0 5.619999999999999  4.619999999999999 1  10.5 1  Z " fill-rule="nonzero" fill="#ffffff" stroke="none" />
    <path d="M 10.5 1.5  C 16.1 1.5  20.5 5.8999999999999995  20.5 11.5  C 20.5 17.1  16.1 21.5  10.5 21.5  C 4.8999999999999995 21.5  0.5 17.1  0.5 11.5  C 0.5 5.8999999999999995  4.8999999999999995 1.5  10.5 1.5  Z " stroke-width="1" stroke="#797979" fill="none" />
  </g>
</svg>