<?xml version="1.0" encoding="utf-8"?>
<svg version="1.1" xmlns:xlink="http://www.w3.org/1999/xlink" width="36px" height="31px" xmlns="http://www.w3.org/2000/svg">
  <g transform="matrix(1 0 0 1 -102 -669 )">
    <path d="M 20.832589285714285 14.594155844155843  L 35.095982142857146 0.3019480519480512  C 35.35044642857143 0.04696969696969555  35.564732142857146 -0.040259740259741994  35.738839285714285 0.04025974025973855  C 35.91294642857143 0.1207792207792191  36 0.33549783549783274  36 0.6844155844155829  L 36 30.315584415584418  C 36 30.664502164502164  35.91294642857143 30.87922077922078  35.738839285714285 30.95974025974026  C 35.564732142857146 31.040259740259742  35.35044642857143 30.953030303030303  35.095982142857146 30.698051948051948  L 20.832589285714285 16.405844155844157  C 20.71205357142857 16.285064935064934  20.625000000000004 16.15757575757576  20 16.023376623376624  L 20 30.315584415584418  C 20.57142857142857 30.664502164502164  20.484375000000004 30.87922077922078  20.310267857142854 30.95974025974026  C 20.136160714285715 31.040259740259742  19.921875000000004 30.953030303030303  19.667410714285715 30.698051948051948  L 5.404017857142858 16.405844155844157  C 5.283482142857142 16.285064935064934  5.196428571428572 16.15757575757576  5.142857142857142 16.023376623376624  L 5.142857142857142 29.671428571428574  C 5.142857142857142 30.02034632034632  5.015625000000001 30.32229437229437  4.7611607142857135 30.577272727272728  C 4.506696428571429 30.832251082251084  4.205357142857143 30.95974025974026  3.8571428571428568 30.95974025974026  L 1.2857142857142856 30.95974025974026  C 0.9375 30.95974025974026  0.6361607142857143 30.832251082251084  0.3816964285714286 30.577272727272728  C 0.12723214285714285 30.32229437229437  0 30.02034632034632  0 29.671428571428574  L 0 1.3285714285714274  C 0 0.9796536796536771  0.12723214285714285 0.6777056277056259  0.3816964285714286 0.42272727272727373  C 0.6361607142857143 0.16774891774891465  0.9375 0.04025974025973855  1.2857142857142856 0.04025974025973855  L 3.8571428571428568 0.04025974025973855  C 4.205357142857143 0.04025974025973855  4.506696428571429 0.16774891774891465  4.7611607142857135 0.42272727272727373  C 5.015625000000001 0.6777056277056259  5.142857142857142 0.9796536796536771  5.142857142857142 1.3285714285714274  L 5.142857142857142 14.976623376623378  C 5.196428571428572 14.842424242424242  5.283482142857142 14.714935064935066  5.404017857142858 14.594155844155843  L 19.667410714285715 0.3019480519480512  C 19.921875000000004 0.04696969696969555  20.136160714285715 -0.040259740259741994  20.310267857142854 0.04025974025973855  C 20.484375000000004 0.1207792207792191  20.57142857142857 0.33549783549783274  20 0.6844155844155829  L 20 14.976623376623378  C 20.625000000000004 14.842424242424242  20.71205357142857 14.714935064935066  20.832589285714285 14.594155844155843  Z " fill-rule="nonzero" fill="#ffffff" stroke="none" transform="matrix(1 0 0 1 102 669 )" />
  </g>
</svg>