<?xml version="1.0" encoding="utf-8"?>
<svg version="1.1" xmlns:xlink="http://www.w3.org/1999/xlink" width="36px" height="31px" xmlns="http://www.w3.org/2000/svg">
  <g transform="matrix(1 0 0 1 -265 -668 )">
    <path d="M 15.167410714285715 16.405844155844157  L 0.9040178571428572 30.698051948051948  C 0.6495535714285715 30.953030303030303  0.4352678571428572 31.040259740259742  0.2611607142857143 30.95974025974026  C 0.08705357142857147 30.87922077922078  0 30.664502164502164  0 30.315584415584418  L 0 0.6844155844155829  C 0 0.33549783549783274  0.08705357142857147 0.1207792207792191  0.2611607142857143 0.04025974025973855  C 0.4352678571428572 -0.040259740259741994  0.6495535714285715 0.04696969696969555  0.9040178571428572 0.3019480519480512  L 15.167410714285715 14.594155844155843  C 15.287946428571427 14.714935064935066  15.375000000000002 14.842424242424242  16 14.976623376623378  L 16 0.6844155844155829  C 15.428571428571427 0.33549783549783274  15.515625 0.1207792207792191  15.689732142857142 0.04025974025973855  C 15.863839285714288 -0.040259740259741994  16.078125 0.04696969696969555  16.332589285714285 0.3019480519480512  L 30.595982142857146 14.594155844155843  C 30.716517857142854 14.714935064935066  30.80357142857143 14.842424242424242  30.857142857142854 14.976623376623378  L 30.857142857142854 1.3285714285714274  C 30.857142857142854 0.9796536796536771  30.984374999999996 0.6777056277056259  31.238839285714285 0.42272727272727373  C 31.493303571428573 0.16774891774891465  31.794642857142858 0.04025974025973855  32.142857142857146 0.04025974025973855  L 34.714285714285715 0.04025974025973855  C 35.0625 0.04025974025973855  35.36383928571429 0.16774891774891465  35.61830357142857 0.42272727272727373  C 35.87276785714286 0.6777056277056259  36 0.9796536796536771  36 1.3285714285714274  L 36 29.671428571428574  C 36 30.02034632034632  35.87276785714286 30.32229437229437  35.61830357142857 30.577272727272728  C 35.36383928571429 30.832251082251084  35.0625 30.95974025974026  34.714285714285715 30.95974025974026  L 32.142857142857146 30.95974025974026  C 31.794642857142858 30.95974025974026  31.493303571428573 30.832251082251084  31.238839285714285 30.577272727272728  C 30.984374999999996 30.32229437229437  30.857142857142854 30.02034632034632  30.857142857142854 29.671428571428574  L 30.857142857142854 16.023376623376624  C 30.80357142857143 16.15757575757576  30.716517857142854 16.285064935064934  30.595982142857146 16.405844155844157  L 16.332589285714285 30.698051948051948  C 16.078125 30.953030303030303  15.863839285714288 31.040259740259742  15.689732142857142 30.95974025974026  C 15.515625 30.87922077922078  15.428571428571427 30.664502164502164  16 30.315584415584418  L 16 16.023376623376624  C 15.375000000000002 16.15757575757576  15.287946428571427 16.285064935064934  15.167410714285715 16.405844155844157  Z " fill-rule="nonzero" fill="#ffffff" stroke="none" transform="matrix(1 0 0 1 265 668 )" />
  </g>
</svg>