<?xml version="1.0" encoding="utf-8"?>
<svg version="1.1" xmlns:xlink="http://www.w3.org/1999/xlink" width="33px" height="33px" xmlns="http://www.w3.org/2000/svg">
  <g transform="matrix(1 0 0 1 -29 -23 )">
    <path d="M 32.22222222222222 24.666666666666664  C 32.74074074074074 25.18518518518518  33 25.81481481481481  33 26.555555555555557  C 33 27.2962962962963  32.74074074074074 27.925925925925924  32.22222222222222 28.444444444444443  L 28.444444444444443 32.22222222222222  C 27.92592592592593 32.74074074074074  27.296296296296298 33  26.555555555555557 33  C 25.814814814814817 33  25.185185185185187 32.74074074074074  24.666666666666668 32.22222222222222  L 16.5 24.055555555555557  L 8.333333333333334 32.22222222222222  C 7.814814814814816 32.74074074074074  7.185185185185185 33  6.444444444444445 33  C 5.703703703703704 33  5.074074074074074 32.74074074074074  4.555555555555556 32.22222222222222  L 0.7777777777777778 28.444444444444443  C 0.2592592592592595 27.925925925925924  0 27.2962962962963  0 26.555555555555557  C 0 25.81481481481481  0.2592592592592595 25.18518518518518  0.7777777777777778 24.666666666666664  L 8.944444444444445 16.5  L 0.7777777777777778 8.333333333333332  C 0.2592592592592595 7.814814814814812  0 7.185185185185185  0 6.444444444444445  C 0 5.703703703703703  0.2592592592592595 5.074074074074069  0.7777777777777778 4.555555555555557  L 4.555555555555556 0.7777777777777779  C 5.074074074074074 0.2592592592592581  5.703703703703704 0  6.444444444444445 0  C 7.185185185185185 0  7.814814814814816 0.2592592592592581  8.333333333333334 0.7777777777777779  L 16.5 8.944444444444446  L 24.666666666666668 0.7777777777777779  C 25.185185185185187 0.2592592592592581  25.814814814814817 0  26.555555555555557 0  C 27.296296296296298 0  27.92592592592593 0.2592592592592581  28.444444444444443 0.7777777777777779  L 32.22222222222222 4.555555555555557  C 32.74074074074074 5.074074074074069  33 5.703703703703703  33 6.444444444444445  C 33 7.185185185185185  32.74074074074074 7.814814814814812  32.22222222222222 8.333333333333332  L 24.055555555555554 16.5  L 32.22222222222222 24.666666666666664  Z " fill-rule="nonzero" fill="#ffffff" stroke="none" transform="matrix(1 0 0 1 29 23 )" />
  </g>
</svg>