<?xml version="1.0" encoding="utf-8"?>
<svg version="1.1" xmlns:xlink="http://www.w3.org/1999/xlink" width="29px" height="28px" xmlns="http://www.w3.org/2000/svg">
  <g transform="matrix(1 0 0 1 -7 -8 )">
    <path d="M 4.142857142857142 3.9200000000000004  C 6.840029761904763 3.9200000000000004  9.05171130952381 5.2325  10.777901785714285 7.8575  C 10.130580357142858 8.93083333333333  9.39155505952381 10.52333333333333  8.560825892857142 12.635000000000002  C 8.323474702380953 12.11  8.123883928571429 11.687083333333332  7.962053571428572 11.366249999999999  C 7.800223214285714 11.045416666666664  7.581752232142858 10.674999999999999  7.306640625 10.254999999999999  C 7.031529017857143 9.834999999999999  6.7564174107142865 9.505416666666664  6.481305803571429 9.26625  C 6.206194196428571 9.027083333333334  5.866350446428571 8.822916666666663  5.461774553571429 8.65375  C 5.0571986607142865 8.484583333333333  4.617559523809525 8.400000000000002  4.142857142857142 8.400000000000002  L 0.5178571428571428 8.400000000000002  C 0.3668154761904762 8.400000000000002  0.24274553571428575 8.3475  0.14564732142857145 8.242500000000001  C 0.04854910714285714 8.137500000000001  0 8.003333333333332  0 7.840000000000001  L 0 4.48  C 0 4.316666666666664  0.04854910714285714 4.182500000000001  0.14564732142857145 4.077500000000001  C 0.24274553571428575 3.9724999999999993  0.3668154761904762 3.9200000000000004  0.5178571428571428 3.9200000000000004  L 4.142857142857142 3.9200000000000004  Z M 28.85435267857143 21.4375  C 28.951450892857146 21.5425  29 21.676666666666662  29 21.84  C 29 22.00333333333333  28.951450892857146 22.1375  28.85435267857143 22.2425  L 23.67578125 27.8425  C 23.578683035714285 27.9475  23.4546130952381 28  23.30357142857143 28  C 23.163318452380956 28  23.04194568452381 27.94458333333333  22.939453125 27.83375  C 22.83696056547619 27.722916666666666  22.785714285714285 27.59166666666667  22.785714285714285 27.439999999999998  L 22.785714285714285 24.08  C 22.44047619047619 24.08  21.9819568452381 24.082916666666666  21.41015625 24.08875  C 20.838355654761905 24.094583333333333  20.40141369047619 24.100416666666668  20.099330357142854 24.10625  C 19.797247023809526 24.11208333333333  19.40345982142857 24.10625  18.91796875 24.08875  C 18.43247767857143 24.07125  18.049479166666668 24.042083333333334  17.768973214285715 24.00125  C 17.488467261904763 23.960416666666667  17.143229166666668 23.89916666666667  16.73325892857143 23.8175  C 16.32328869047619 23.735833333333332  15.983444940476192 23.627916666666668  15.713727678571429 23.493750000000002  C 15.444010416666668 23.359583333333333  15.131138392857144 23.19333333333333  14.775111607142856 22.995  C 14.419084821428573 22.796666666666663  14.100818452380953 22.563333333333333  13.8203125 22.295  C 13.53980654761905 22.026666666666667  13.243117559523812 21.714583333333334  12.930245535714285 21.35875  C 12.617373511904763 21.002916666666664  12.315290178571427 20.5975  12.023995535714285 20.1425  C 12.660528273809526 19.0575  13.394159226190478 17.465  14.224888392857142 15.365000000000002  C 14.462239583333334 15.89  14.661830357142856 16.312916666666666  14.823660714285715 16.63375  C 14.985491071428571 16.954583333333332  15.203962053571429 17.325  15.479073660714285 17.745  C 15.754185267857144 18.165  16.029296875 18.49458333333333  16.304408482142854 18.73375  C 16.579520089285715 18.972916666666663  16.919363839285715 19.177083333333332  17.323939732142854 19.346249999999998  C 17.728515625 19.515416666666667  18.168154761904763 19.599999999999998  18.642857142857146 19.599999999999998  L 22.785714285714285 19.599999999999998  L 22.785714285714285 16.240000000000002  C 22.785714285714285 16.076666666666668  22.834263392857146 15.942499999999999  22.931361607142854 15.837500000000002  C 23.02845982142857 15.7325  23.152529761904763 15.680000000000001  23.30357142857143 15.680000000000001  C 23.433035714285715 15.680000000000001  23.5625 15.738333333333332  23.691964285714285 15.854999999999997  L 28.85435267857143 21.4375  Z M 28.85435267857143 5.7574999999999985  C 28.951450892857146 5.862499999999999  29 5.996666666666665  29 6.159999999999999  C 29 6.323333333333333  28.951450892857146 6.4575  28.85435267857143 6.5625  L 23.67578125 12.162499999999998  C 23.578683035714285 12.2675  23.4546130952381 12.319999999999999  23.30357142857143 12.319999999999999  C 23.163318452380956 12.319999999999999  23.04194568452381 12.264583333333333  22.939453125 12.15375  C 22.83696056547619 12.042916666666665  22.785714285714285 11.911666666666664  22.785714285714285 11.760000000000002  L 22.785714285714285 8.400000000000002  L 18.642857142857146 8.400000000000002  C 18.125 8.400000000000002  17.655691964285715 8.487499999999999  17.234933035714285 8.662499999999998  C 16.814174107142854 8.837500000000002  16.44196428571429 9.099999999999998  16.11830357142857 9.450000000000001  C 15.79464285714286 9.799999999999999  15.519531250000004 10.15875  15.29296875 10.526250000000001  C 15.066406250000004 10.893749999999999  14.823660714285715 11.345833333333331  14.564732142857144 11.882499999999999  C 14.21949404761905 12.605833333333333  13.79873511904762 13.603333333333333  13.302455357142858 14.875  C 12.989583333333334 15.645000000000003  12.72256324404762 16.292499999999997  12.501395089285715 16.8175  C 12.28022693452381 17.3425  11.988932291666668 17.955  11.627511160714285 18.655  C 11.266090029761905 19.354999999999997  10.92085193452381 19.938333333333333  10.591796875 20.405  C 10.262741815476192 20.871666666666666  9.863560267857142 21.355833333333333  9.394252232142858 21.8575  C 8.924944196428573 22.359166666666667  8.439453125 22.75875  7.937779017857142 23.056250000000002  C 7.4361049107142865 23.35375  6.861607142857143 23.59875  6.2142857142857135 23.79125  C 5.5669642857142865 23.98375  4.876488095238096 24.08  4.142857142857142 24.08  L 0.5178571428571428 24.08  C 0.3668154761904762 24.08  0.24274553571428575 24.0275  0.14564732142857145 23.9225  C 0.04854910714285714 23.8175  0 23.683333333333334  0 23.52  L 0 20.16  C 0 19.996666666666666  0.04854910714285714 19.8625  0.14564732142857145 19.7575  C 0.24274553571428575 19.6525  0.3668154761904762 19.599999999999998  0.5178571428571428 19.599999999999998  L 4.142857142857142 19.599999999999998  C 4.6607142857142865 19.599999999999998  5.130022321428571 19.5125  5.55078125 19.337500000000002  C 5.971540178571429 19.162499999999998  6.34375 18.900000000000002  6.6674107142857135 18.55  C 6.991071428571429 18.2  7.266183035714286 17.841250000000002  7.492745535714286 17.47375  C 7.719308035714286 17.10625  7.962053571428572 16.654166666666665  8.220982142857142 16.1175  C 8.566220238095239 15.394166666666667  8.986979166666668 14.396666666666667  9.483258928571427 13.125  C 9.796130952380953 12.355  10.063151041666668 11.7075  10.284319196428573 11.182500000000001  C 10.505487351190478 10.657499999999999  10.79678199404762 10.045  11.158203125 9.344999999999999  C 11.519624255952381 8.645  11.864862351190478 8.061666666666664  12.193917410714285 7.595  C 12.522972470238095 7.128333333333332  12.922154017857142 6.6441666666666634  13.391462053571427 6.1425  C 13.860770089285715 5.640833333333332  14.346261160714285 5.241249999999999  14.847935267857144 4.943749999999999  C 15.349609375 4.646249999999998  15.924107142857144 4.401250000000001  16.57142857142857 4.208749999999998  C 17.21875 4.016249999999999  17.90922619047619 3.9200000000000004  18.642857142857146 3.9200000000000004  L 22.785714285714285 3.9200000000000004  L 22.785714285714285 0.5600000000000005  C 22.785714285714285 0.3966666666666634  22.834263392857146 0.2625000000000006  22.931361607142854 0.15749999999999975  C 23.02845982142857 0.05249999999999888  23.152529761904763 0  23.30357142857143 0  C 23.433035714285715 0  23.5625 0.058333333333333126  23.691964285714285 0.17499999999999938  L 28.85435267857143 5.7574999999999985  Z " fill-rule="nonzero" fill="#003366" stroke="none" transform="matrix(1 0 0 1 7 8 )" />
  </g>
</svg>