<?xml version="1.0" encoding="utf-8"?>
<svg version="1.1" xmlns:xlink="http://www.w3.org/1999/xlink" width="31px" height="31px" xmlns="http://www.w3.org/2000/svg">
  <g transform="matrix(1 0 0 1 -179 -806 )">
    <path d="M 5.450795947901592 15.5  C 5.450795947901592 16.158253205128204  5.562952243125904 16.85997596153846  5.78726483357453 17.60516826923077  L 3.521707670043415 19.486778846153843  C 2.893632416787265 18.20753205128205  2.5795947901591894 16.87860576923077  2.5795947901591894 15.5  L 2.5795947901591894 13.115384615384617  C 2.5795947901591894 12.792467948717945  2.7216594307766524 12.51302083333333  3.0057887120115776 12.27704326923077  C 3.2899179932465032 12.041065705128204  3.626386878919441 11.923076923076922  4.0151953690303905 11.923076923076922  C 4.4040038591413415 11.923076923076922  4.740472744814279 12.041065705128204  5.024602026049204 12.27704326923077  C 5.30873130728413 12.51302083333333  5.450795947901592 12.792467948717945  5.450795947901592 13.115384615384617  L 5.450795947901592 15.5  Z M 31 5.961538461538461  C 31 6.122996794871792  30.925229136517128 6.265825320512818  30.775687409551374 6.390024038461539  L 22.678002894356005 13.115384615384617  L 22.678002894356005 15.5  C 22.678002894356005 17.139423076923077  21.975156777616984 18.542868589743588  20.56946454413893 19.71033653846154  C 19.163772310660878 20.877804487179485  17.4739507959479 21.46153846153846  15.5 21.46153846153846  C 14.677520501688376 21.46153846153846  13.862518089725036 21.343549679487182  13.054992764109986 21.107572115384617  L 10.901591895803184 22.896033653846157  C 12.352146647370962 23.529447115384617  13.884949348769899 23.846153846153843  15.5 23.846153846153843  C 18.266521948866377 23.846153846153843  20.633019778099374 23.029547275641022  22.599493487698986 21.396334134615383  C 24.5659671972986 19.76312099358974  25.54920405209841 17.797676282051277  25.54920405209841 15.5  L 25.54920405209841 13.115384615384617  C 25.54920405209841 12.792467948717945  25.691268692715877 12.51302083333333  25.9753979739508 12.27704326923077  C 26.25952725518572 12.041065705128204  26.59599614085866 11.923076923076922  26.98480463096961 11.923076923076922  C 27.373613121080563 11.923076923076922  27.710082006753503 12.041065705128204  27.994211287988424 12.27704326923077  C 28.27834056922335 12.51302083333333  28.420405209840812 12.792467948717945  28.420405209840812 13.115384615384617  L 28.420405209840812 15.5  C 28.420405209840812 18.244791666666664  27.317534973468405 20.63251201923077  25.111794500723587 22.66316105769231  C 22.906054027978776 24.693810096153843  20.180656054027978 25.858173076923077  16.9356005788712 26.15625  L 16.9356005788712 28.615384615384617  L 22.678002894356005 28.615384615384617  C 23.06681138446696 28.615384615384617  23.4032802701399 28.733373397435898  23.68740955137482 28.96935096153846  C 23.971538832609745 29.205328525641026  24.113603473227204 29.484775641025642  24.113603473227204 29.80769230769231  C 24.113603473227204 30.130608974358974  23.971538832609745 30.410056089743588  23.68740955137482 30.646033653846153  C 23.4032802701399 30.882011217948723  23.06681138446696 31  22.678002894356005 31  L 8.321997105643995 31  C 7.9331886155330436 31  7.596719729860107 30.882011217948723  7.312590448625182 30.646033653846153  C 7.028461167390256 30.410056089743588  6.886396526772793 30.130608974358974  6.886396526772793 29.80769230769231  C 6.886396526772793 29.484775641025642  7.028461167390256 29.205328525641026  7.312590448625182 28.96935096153846  C 7.596719729860107 28.733373397435898  7.9331886155330436 28.615384615384617  8.321997105643995 28.615384615384617  L 14.0643994211288 28.615384615384617  L 14.0643994211288 26.15625  C 12.195127834056924 25.994791666666664  10.438012542209359 25.491786858974358  8.793053545586107 24.647235576923077  L 3.0955137481910278 29.37920673076923  C 2.9459720212252773 29.503405448717952  2.7739990352146653 29.56550480769231  2.5795947901591894 29.56550480769231  C 2.3851905451037143 29.56550480769231  2.213217559093102 29.503405448717952  2.063675832127352 29.37920673076923  L 0.22431259044862517 27.8515625  C 0.07477086348287512 27.727363782051277  0 27.584535256410255  0 27.423076923076923  C 0 27.261618589743588  0.07477086348287512 27.118790064102566  0.22431259044862517 26.994591346153843  L 27.904486251808976 4.005408653846152  C 28.054027978774723 3.8812099358974352  28.22600096478534 3.819110576923078  28.420405209840812 3.819110576923078  C 28.614809454896285 3.819110576923078  28.7867824409069 3.8812099358974352  28.936324167872648 4.005408653846152  L 30.775687409551374 5.533052884615383  C 30.925229136517128 5.6572516025641  31 5.800080128205127  31 5.961538461538461  Z M 19.638567293777133 1.0991586538461524  C 20.872286541244573 1.8319310897435876  21.74336710082007 2.7758413461538476  22.251808972503618 3.930889423076922  L 8.321997105643995 15.5  L 8.321997105643995 5.961538461538461  C 8.321997105643995 4.322115384615383  9.02484322238302 2.91866987179487  10.43053545586107 1.751201923076922  C 11.836227689339125 0.5837339743589774  13.526049204052098 0  15.5 0  C 17.02532561505065 0  18.404848046309695 0.36638621794872095  19.638567293777133 1.0991586538461524  Z " fill-rule="nonzero" fill="#ffffff" stroke="none" transform="matrix(1 0 0 1 179 806 )" />
  </g>
</svg>