<?xml version="1.0" encoding="utf-8"?>
<svg version="1.1" xmlns:xlink="http://www.w3.org/1999/xlink" width="29px" height="28px" xmlns="http://www.w3.org/2000/svg">
  <g transform="matrix(1 0 0 1 -72 -58 )">
    <path d="M 28.31129653401797 13.086956521739129  C 28.770432178005997 13.581521739130434  29.000000000000007 14.158514492753621  29 14.817934782608695  C 29.000000000000007 15.464673913043478  28.770432178005997 16.03532608695652  28.31129653401797 16.529891304347824  L 26.915275994865212 17.956521739130434  C 26.44373127941806 18.438405797101446  25.87911852802739 18.679347826086957  25.221437740693197 18.679347826086957  C 24.55134788189987 18.679347826086957  23.99293966623877 18.438405797101446  23.546213093709884 17.956521739130434  L 18 12.383152173913043  L 18 25.77445652173913  C 18.073812580231063 26.433876811594203  17.841142490372274 26.96965579710145  17.375802310654684 27.38179347826087  C 16.9104621309371 27.793931159420293  16.348951647411212 28  15.691270860077022 28  L 13.308729139922978 28  C 12.651048352588791 28  12.0895378690629 27.793931159420293  11.624197689345316 27.38179347826087  C 11.158857509627728 26.96965579710145  10.926187419768935 26.433876811594203  11 25.77445652173913  L 11 12.383152173913043  L 5.453786906290116 17.956521739130434  C 5.007060333761232 18.438405797101446  4.448652118100128 18.679347826086957  3.7785622593068036 18.679347826086957  C 3.1084724005134787 18.679347826086957  2.5500641848523746 18.438405797101446  2.1033376123234917 17.956521739130434  L 0.7073170731707318 16.529891304347824  C 0.2357723577235773 16.04800724637681  0 15.477355072463768  0 14.817934782608695  C 0 14.145833333333332  0.2357723577235773 13.568840579710145  0.7073170731707318 13.086956521739129  L 12.824775353016689 0.7038043478260874  C 13.259092854086438 0.23460144927536142  13.817501069747543 0  14.5 0  C 15.170089858793324 0  15.734702610183998 0.23460144927536142  16.193838254172015 0.7038043478260874  L 28.31129653401797 13.086956521739129  Z " fill-rule="nonzero" fill="#87e592" stroke="none" transform="matrix(1 0 0 1 72 58 )" />
  </g>
</svg>