<?xml version="1.0" encoding="utf-8"?>
<svg version="1.1" xmlns:xlink="http://www.w3.org/1999/xlink" width="30px" height="30px" xmlns="http://www.w3.org/2000/svg">
  <g transform="matrix(1 0 0 1 -15 -14 )">
    <path d="M 21.62109375 18.125000000000004  C 21.62109375 18.29427083333333  21.555989583333336 18.444010416666664  21.42578125 18.57421875  L 18.57421875 21.425781249999996  C 18.444010416666668 21.55598958333333  18.294270833333332 21.62109375  18.125 21.62109375  C 17.95572916666667 21.62109375  17.805989583333336 21.55598958333333  17.67578125 21.425781249999996  L 15 18.75  L 12.32421875 21.425781249999996  C 12.194010416666666 21.55598958333333  12.044270833333334 21.62109375  11.875 21.62109375  C 11.705729166666668 21.62109375  11.555989583333336 21.55598958333333  11.42578125 21.425781249999996  L 8.57421875 18.57421875  C 8.444010416666666 18.444010416666664  8.378906250000002 18.29427083333333  8.37890625 18.125000000000004  C 8.378906250000002 17.955729166666668  8.444010416666666 17.805989583333336  8.57421875 17.675781249999996  L 11.25 15  L 8.57421875 12.324218749999998  C 8.444010416666666 12.194010416666664  8.378906250000002 12.044270833333332  8.37890625 11.875000000000002  C 8.378906250000002 11.705729166666666  8.444010416666666 11.55598958333333  8.57421875 11.42578125  L 11.42578125 8.574218749999998  C 11.555989583333336 8.444010416666664  11.705729166666668 8.37890625  11.875 8.37890625  C 12.044270833333334 8.37890625  12.194010416666666 8.444010416666664  12.32421875 8.574218749999998  L 15 11.25  L 17.67578125 8.574218749999998  C 17.805989583333336 8.444010416666664  17.95572916666667 8.37890625  18.125 8.37890625  C 18.294270833333332 8.37890625  18.444010416666668 8.444010416666664  18.57421875 8.574218749999998  L 21.42578125 11.42578125  C 21.555989583333336 11.55598958333333  21.62109375 11.705729166666666  21.62109375 11.875000000000002  C 21.62109375 12.044270833333332  21.555989583333336 12.194010416666664  21.42578125 12.324218749999998  L 18.75 15  L 21.42578125 17.675781249999996  C 21.555989583333336 17.805989583333336  21.62109375 17.955729166666668  21.62109375 18.125000000000004  Z M 24.19921875 20.33203125  C 25.149739583333332 18.70442708333333  25.625 16.927083333333336  25.625 15  C 25.625 13.072916666666664  25.149739583333332 11.295572916666666  24.19921875 9.66796875  C 23.24869791666667 8.04036458333333  21.95963541666667 6.75130208333333  20.33203125 5.80078125  C 18.704427083333332 4.850260416666666  16.927083333333336 4.375000000000001  15 4.375000000000001  C 13.072916666666666 4.375000000000001  11.295572916666668 4.850260416666666  9.66796875 5.80078125  C 8.040364583333334 6.75130208333333  6.751302083333334 8.04036458333333  5.80078125 9.66796875  C 4.850260416666667 11.295572916666666  4.375 13.072916666666664  4.375 15  C 4.375 16.927083333333336  4.850260416666667 18.70442708333333  5.80078125 20.33203125  C 6.751302083333334 21.959635416666664  8.040364583333334 23.248697916666668  9.66796875 24.19921875  C 11.295572916666668 25.149739583333332  13.072916666666666 25.625  15 25.625  C 16.927083333333336 25.625  18.704427083333332 25.149739583333332  20.33203125 24.19921875  C 21.95963541666667 23.248697916666668  23.24869791666667 21.959635416666664  24.19921875 20.33203125  Z M 27.98828125 7.470703125  C 29.32942708333333 9.76888020833333  30 12.278645833333329  30 15  C 30 17.721354166666668  29.32942708333333 20.231119791666664  27.98828125 22.529296875  C 26.64713541666667 24.827473958333332  24.827473958333332 26.647135416666668  22.529296875 27.98828125  C 20.23111979166667 29.329427083333336  17.721354166666668 30  15 30  C 12.278645833333334 30  9.768880208333334 29.329427083333336  7.470703125 27.98828125  C 5.172526041666667 26.647135416666668  3.352864583333334 24.827473958333332  2.01171875 22.529296875  C 0.6705729166666665 20.231119791666664  0 17.721354166666668  0 15  C 0 12.278645833333329  0.6705729166666665 9.76888020833333  2.01171875 7.470703125  C 3.352864583333334 5.172526041666666  5.172526041666667 3.3528645833333304  7.470703125 2.011718749999999  C 9.768880208333334 0.6705729166666641  12.278645833333334 0  15 0  C 17.721354166666668 0  20.23111979166667 0.6705729166666641  22.529296875 2.011718749999999  C 24.827473958333332 3.3528645833333304  26.64713541666667 5.172526041666666  27.98828125 7.470703125  Z " fill-rule="nonzero" fill="#000000" stroke="none" transform="matrix(1 0 0 1 15 14 )" />
  </g>
</svg>