<?xml version="1.0" encoding="utf-8"?>
<svg version="1.1" xmlns:xlink="http://www.w3.org/1999/xlink" width="26px" height="15px" xmlns="http://www.w3.org/2000/svg">
  <g transform="matrix(1 0 0 1 -213 -670 )">
    <path d="M 24.623861171366595 6.165105386416862  C 25.383369486623284 7.012099921935986  25.827042660882142 8.001561280249804  25.954880694143167 9.133489461358314  C 26.045119305856833 9.937548790007805  25.962400578452645 10.712334113973457  25.706724511930588 11.457845433255269  C 25.451048445408535 12.203356752537081  25.07881417208966 12.841530054644808  24.59002169197397 13.372365339578455  C 24.101229211858282 13.903200624512099  23.505278380332612 14.316939890710383  22.802169197396964 14.613583138173302  C 22.099060014461315 14.910226385636221  21.360231381055677 15.031225604996099  20.585683297180044 14.976580796252927  C 19.374981923355026 14.890710382513662  18.32407809110629 14.402810304449648  17.432971800433837 13.51288056206089  C 16.541865509761386 12.622950819672132  16.036153289949386 11.553473848555813  15.91583514099783 10.304449648711943  C 15.825596529284166 9.437939110070259  15.928994938539407 8.61631537861046  16.226030368763556 7.839578454332553  C 16.52306579898771 7.062841530054643  16.968618944323936 6.397345823575331  17.562689804772234 5.843091334894614  L 16.76182212581345 4.590163934426229  C 16.039913232104123 5.214676034348165  15.472161966738973 5.971896955503513  15.058568329718005 6.861826697892271  C 14.644974692697037 7.751756440281031  14.438177874186552 8.70413739266198  14.438177874186552 9.71896955503513  C 14.438177874186552 9.929742388758783  14.368618944323936 10.111241217798595  14.229501084598699 10.263466042154567  C 14.090383224873465 10.415690866510538  13.91930585683297 10.491803278688524  13.716268980477224 10.491803278688524  L 10.828633405639913 10.491803278688524  L 10.050325379609543 10.491803278688524  C 9.877368040491685 11.772053083528492  9.317136659436008 12.841530054644808  8.369631236442517 13.70023419203747  C 7.422125813449024 14.55893832943013  6.316702819956616 14.988290398126464  5.053362255965292 14.988290398126464  C 3.6621836587129426 14.988290398126464  2.4721619667389736 14.475019516003123  1.483297180043384 13.44847775175644  C 0.4944323933477946 12.421935987509757  0 11.18657298985168  0 9.742388758782202  C 0 8.298204527712725  0.4944323933477946 7.062841530054643  1.483297180043384 6.0362997658079625  C 2.4721619667389736 5.00975800156128  3.6621836587129426 4.496487119437939  5.053362255965292 4.496487119437939  C 5.624873463485177 4.496487119437939  6.196384671005061 4.601873536299766  6.7678958785249455 4.81264637002342  L 7.038611713665944 4.285714285714286  C 6.113665943600868 3.4270101483216235  4.970643528561101 2.9976580796252925  3.609544468546638 2.9976580796252925  L 2.88763557483731 2.9976580796252925  C 2.6921185827910343 2.9976580796252925  2.5229211858279106 2.9234972677595605  2.380043383947939 2.775175644028103  C 2.237165582067968 2.6268540202966415  2.1657266811279827 2.451209992193597  2.1657266811279827 2.2482435597189703  C 2.1657266811279827 2.0452771272443386  2.237165582067968 1.8696330991412942  2.380043383947939 1.7213114754098364  C 2.5229211858279106 1.5729898516783751  2.6921185827910343 1.4988290398126463  2.88763557483731 1.4988290398126463  L 4.3314533622559654 1.4988290398126463  C 4.918004338394795 1.4988290398126463  5.463195950831526 1.5515222482435598  5.96702819956616 1.6569086651053866  C 6.470860448300796 1.7622950819672134  6.908893709327549 1.9125683060109284  7.281127982646421 2.1077283372365345  C 7.653362255965293 2.3028883684621375  7.9221981200289235 2.4570647931303653  8.08763557483731 2.5702576112412174  C 8.2530730296457 2.683450429352066  8.444830079537239 2.825917252146759  8.662906724511931 2.9976580796252925  L 14.438177874186552 2.9976580796252925  L 15.7353579175705 2.9976580796252925  L 14.776572668112799 1.4988290398126463  L 12.272451193058568 1.4988290398126463  C 12.046854663774404 1.4988290398126463  11.862617498192336 1.411007025761124  11.719739696312363 1.2353629976580793  C 11.576861894432396 1.0597189695550346  11.524222704266089 0.8548009367681492  11.561822125813448 0.6206088992974246  C 11.591901663051338 0.44106167056986556  11.678380332610269 0.2927400468384078  11.82125813449024 0.1756440281030447  C 11.96413593637021 0.058548009367681564  12.12581344902386 0  12.306290672451192 0  L 15.160086767895878 0  C 15.408242950108459 0  15.607519884309474 0.10928961748633781  15.757917570498917 0.32786885245901676  L 16.547505422993492 1.557377049180328  L 17.83340563991323 0.22248243559718994  C 17.976283441793203 0.07416081186572887  18.14924078091106 0  18.35227765726681 0  L 19.491540130151844 0  C 19.687057122198123 0  19.856254519161247 0.07416081186572887  19.999132321041213 0.22248243559718994  C 20.14201012292119 0.3708040593286477  20.21344902386117 0.5464480874316924  20.21344902386117 0.749414519906324  L 20.21344902386117 2.2482435597189703  C 20.21344902386117 2.451209992193597  20.14201012292119 2.6268540202966415  19.999132321041213 2.775175644028103  C 19.856254519161247 2.9234972677595605  19.687057122198123 2.9976580796252925  19.491540130151844 2.9976580796252925  L 17.472451193058568 2.9976580796252925  L 18.769631236442518 5.0117096018735365  C 19.75473608098337 4.51990632318501  20.78872017353579 4.379391100702574  21.871583514099783 4.590163934426229  C 22.946926970354305 4.793130366900858  23.86435285610991 5.318110850897736  24.623861171366595 6.165105386416862  Z M 2.50412147505423 12.388758782201405  C 3.2109906001446133 13.12256049960968  4.060737527114967 13.489461358313818  5.053362255965292 13.489461358313818  C 5.918148951554592 13.489461358313818  6.681417208966016 13.206479313036688  7.343167028199566 12.640515222482435  C 8.004916847433117 12.074551131928178  8.422270426608822 11.35831381733021  8.59522776572668 10.491803278688524  L 5.053362255965292 10.491803278688524  C 4.790166305133767 10.491803278688524  4.583369486623283 10.37080405932865  4.432971800433839 10.1288056206089  C 4.29761388286334 9.879000780640123  4.293853940708605 9.633099141295862  4.421691973969631 9.391100702576113  L 6.079826464208243 6.147540983606557  C 5.726391901663052 6.046057767369243  5.384237165582069 5.995316159250585  5.053362255965292 5.995316159250585  C 4.060737527114967 5.995316159250585  3.2109906001446133 6.362217017954724  2.50412147505423 7.096018735362997  C 1.7972523499638469 7.829820452771273  1.443817787418655 8.711943793911006  1.443817787418655 9.742388758782202  C 1.443817787418655 10.772833723653395  1.7972523499638469 11.654957064793129  2.50412147505423 12.388758782201405  Z M 18.386117136659436 12.388758782201405  C 19.09298626174982 13.12256049960968  19.942733188720172 13.489461358313818  20.9353579175705 13.489461358313818  C 21.927982646420826 13.489461358313818  22.777729573391177 13.12256049960968  23.484598698481562 12.388758782201405  C 24.191467823571948 11.654957064793129  24.544902386117137 10.772833723653395  24.544902386117137 9.742388758782202  C 24.544902386117137 8.711943793911006  24.191467823571948 7.829820452771273  23.484598698481562 7.096018735362997  C 22.777729573391177 6.362217017954724  21.927982646420826 5.995316159250585  20.9353579175705 5.995316159250585  C 20.484164859002167 5.995316159250585  20.029211858279105 6.0889929742388755  19.570498915401302 6.2763466042154565  L 21.533188720173534 9.320843091334895  C 21.645986984815618 9.50039032006245  21.68358640636298 9.691647150663542  21.645986984815618 9.894613583138174  C 21.60838756326826 10.097580015612802  21.506869125090386 10.253708040593285  21.341431670281995 10.362997658079625  C 21.22863340563991 10.448868071818893  21.093275488069416 10.491803278688524  20.9353579175705 10.491803278688524  C 20.672161966738976 10.491803278688524  20.472885032537963 10.378610460577676  20.33752711496746 10.152224824355972  L 18.37483731019523 7.107728337236534  C 17.675488069414317 7.849336455893832  17.325813449023862 8.727556596409054  17.325813449023862 9.742388758782202  C 17.325813449023862 10.772833723653395  17.67924801156905 11.654957064793129  18.386117136659436 12.388758782201405  Z " fill-rule="nonzero" fill="#ffffff" stroke="none" transform="matrix(1 0 0 1 213 670 )" />
  </g>
</svg>