<?xml version="1.0" encoding="utf-8"?>
<svg version="1.1" xmlns:xlink="http://www.w3.org/1999/xlink" width="16px" height="25px" xmlns="http://www.w3.org/2000/svg">
  <g transform="matrix(1 0 0 1 -28 -85 )">
    <path d="M 10.828125 11.279296875  C 11.609375 10.465494791666666  12 9.483506944444445  12 8.333333333333334  C 12 7.183159722222221  11.609375 6.201171875  10.828125 5.387369791666666  C 10.046875 4.573567708333334  9.104166666666668 4.166666666666666  8 4.166666666666666  C 6.895833333333334 4.166666666666666  5.953125 4.573567708333334  5.171875 5.387369791666666  C 4.390625 6.201171875  4 7.183159722222221  4 8.333333333333334  C 4 9.483506944444445  4.390625 10.465494791666666  5.171875 11.279296875  C 5.953125 12.093098958333334  6.895833333333334 12.5  8 12.5  C 9.104166666666668 12.5  10.046875 12.093098958333334  10.828125 11.279296875  Z M 13.65625 2.44140625  C 15.21875 4.069010416666666  16 6.032986111111108  16 8.333333333333334  C 16 9.516059027777777  15.828125 10.487196180555555  15.484375 11.246744791666666  L 9.796875 23.844401041666664  C 9.630208333333334 24.202473958333336  9.3828125 24.484592013888886  9.0546875 24.690755208333336  C 8.7265625 24.89691840277778  8.375 25  8 25  C 7.625 25  7.2734375 24.89691840277778  6.9453125 24.690755208333336  C 6.6171875 24.484592013888886  6.375 24.202473958333336  6.21875 23.844401041666664  L 0.515625 11.246744791666666  C 0.171875 10.487196180555555  0 9.516059027777777  0 8.333333333333334  C 0 6.032986111111108  0.78125 4.069010416666666  2.34375 2.44140625  C 3.9062500000000004 0.8138020833333343  5.791666666666667 0  8 0  C 10.208333333333334 0  12.09375 0.8138020833333343  13.65625 2.44140625  Z " fill-rule="nonzero" fill="#000000" stroke="none" transform="matrix(1 0 0 1 28 85 )" />
  </g>
</svg>