<?xml version="1.0" encoding="utf-8"?>
<svg version="1.1" xmlns:xlink="http://www.w3.org/1999/xlink" width="17px" height="17px" xmlns="http://www.w3.org/2000/svg">
  <g transform="matrix(1 0 0 1 -95 -683 )">
    <path d="M 16.981902058197303 0.645951704545454  C 17.01005441211261 0.8109611742424228  16.983912940619824 0.9699337121212114  16.90347764371895 1.122869318181818  L 9.181689141234918 16.577414772727273  C 9.044949136503432 16.859138257575758  8.815708540335935 17  8.493967352732435 17  C 8.453749704281998 17  8.393423231606342 16.991950757575758  8.312987934705465 16.975852272727273  C 8.13603028152354 16.935606060606062  7.993257629524486 16.845052083333336  7.884669978708304 16.70419034090909  C 7.776082327892122 16.563328598484848  7.7217885024840305 16.404356060606062  7.7217885024840305 16.227272727272727  L 7.7217885024840305 9.272727272727272  L 0.7721788502484032 9.272727272727272  C 0.5952211970664775 9.272727272727272  0.4363614856872487 9.218394886363637  0.29559971611071684 9.109730113636363  C 0.15483794653418498 9.001065340909092  0.06434823752070026 8.858191287878787  0.0241305890702626 8.681107954545457  C -0.016087059380175066 8.504024621212121  0 8.33499053030303  0.07239176721078779 8.174005681818182  C 0.1447835344215756 8.013020833333332  0.2614147149278448 7.892282196969696  0.42228530872959547 7.811789772727272  L 15.865862313697658 0.08451704545454597  C 15.970428199668797 0.028172348484847398  16.087059380175067 0  16.215755855216464 0  C 16.432931156848827 0  16.6139105748758 0.07646780303030143  16.758694109297373 0.22940340909090995  C 16.879347054648687 0.34209280303030143  16.953749704281996 0.4809422348484834  16.981902058197303 0.645951704545454  Z " fill-rule="nonzero" fill="#78d28d" stroke="none" transform="matrix(1 0 0 1 95 683 )" />
  </g>
</svg>