<?xml version="1.0" encoding="utf-8"?>
<svg version="1.1" xmlns:xlink="http://www.w3.org/1999/xlink" width="16px" height="15px" xmlns="http://www.w3.org/2000/svg">
  <g transform="matrix(1 0 0 1 -300 -380 )">
    <path d="M 15.461538461538462 5.378071833648393  C 15.820512820512821 5.434782608695653  16 5.579710144927536  16 5.812854442344046  C 16 5.951480781348455  15.916666666666668 6.102709514807812  15.75 6.266540642722117  L 12.259615384615385 9.612476370510397  L 13.086538461538462 14.338374291115311  C 13.092948717948719 14.382482671707626  13.096153846153847 14.445494643982355  13.096153846153847 14.527410207939509  C 13.096153846153847 14.659735349716446  13.0625 14.771581600504096  12.995192307692308 14.862948960302457  C 12.927884615384615 14.95431632010082  12.830128205128206 15  12.701923076923077 15  C 12.580128205128206 15  12.451923076923077 14.962192816635161  12.317307692307692 14.886578449905482  L 8 12.655954631379963  L 3.6826923076923075 14.886578449905482  C 3.541666666666667 14.962192816635161  3.4134615384615383 15  3.298076923076923 15  C 3.1634615384615383 15  3.0625 14.95431632010082  2.9951923076923075 14.862948960302457  C 2.9278846153846154 14.771581600504096  2.894230769230769 14.659735349716446  2.894230769230769 14.527410207939509  C 2.894230769230769 14.48960302457467  2.900641025641026 14.426591052299937  2.9134615384615383 14.338374291115311  L 3.7403846153846154 9.612476370510397  L 0.2403846153846154 6.266540642722117  C 0.08012820512820512 6.09640831758034  0 5.945179584120984  0 5.812854442344046  C 0 5.579710144927536  0.17948717948717946 5.434782608695653  0.5384615384615384 5.378071833648393  L 5.365384615384615 4.688090737240075  L 7.528846153846154 0.3875236294896023  C 7.650641025641026 0.1291745431632002  7.8076923076923075 0  8 0  C 8.192307692307692 0  8.349358974358974 0.1291745431632002  8.471153846153847 0.3875236294896023  L 10.634615384615385 4.688090737240075  L 15.461538461538462 5.378071833648393  Z " fill-rule="nonzero" fill="#ffffff" stroke="none" transform="matrix(1 0 0 1 300 380 )" />
  </g>
</svg>