<?xml version="1.0" encoding="utf-8"?>
<svg version="1.1" xmlns:xlink="http://www.w3.org/1999/xlink" width="31px" height="31px" xmlns="http://www.w3.org/2000/svg">
  <g transform="matrix(1 0 0 1 -3 0 )">
    <path d="M 30.794140625 22.412434895833332  C 30.931380208333334 23.428276909722218  31 24.50802951388889  31 25.651692708333336  C 31 27.118272569444446  30.495442708333336 28.376302083333336  29.486328125 29.42578125  C 28.477213541666668 30.475260416666664  27.262239583333336 31  25.841406250000002 31  L 5.1585937500000005 31  C 3.7377604166666667 31  2.5227864583333335 30.475260416666664  1.5136718750000002 29.42578125  C 0.5045572916666669 28.376302083333336  0 27.118272569444446  0 25.651692708333336  C 0 24.50802951388889  0.06861979166666683 23.428276909722218  0.20585937500000018 22.412434895833332  C 0.34309895833333354 21.39659288194444  0.5973958333333335 20.3740234375  0.9687500000000002 19.3447265625  C 1.340104166666667 18.3154296875  1.8123697916666668 17.43413628472222  2.3855468749999997 16.700846354166668  C 2.9587239583333336 15.967556423611107  3.7175781249999997 15.368815104166666  4.662109375 14.904622395833334  C 5.606640625 14.4404296875  6.6924479166666675 14.208333333333334  7.91953125 14.208333333333334  C 10.034635416666667 15.930555555555554  12.561458333333334 16.791666666666668  15.5 16.791666666666668  C 18.438541666666673 16.791666666666668  20.965364583333336 15.930555555555554  23.080468749999998 14.208333333333334  C 24.307552083333334 14.208333333333334  25.393359375 14.4404296875  26.337890625 14.904622395833334  C 27.282421875 15.368815104166666  28.04127604166667 15.967556423611107  28.614453125 16.700846354166668  C 29.187630208333335 17.43413628472222  29.659895833333334 18.3154296875  30.03125 19.3447265625  C 30.40260416666667 20.3740234375  30.656901041666668 21.39659288194444  30.794140625 22.412434895833332  Z M 22.075390625 2.2705078125  C 23.891796875 3.7841796875  24.8 5.610677083333335  24.8 7.75  C 24.8 9.889322916666666  23.891796875 11.7158203125  22.075390625 13.2294921875  C 20.258984375 14.7431640625  18.0671875 15.5  15.5 15.5  C 12.932812499999999 15.5  10.741015625000001 14.7431640625  8.924609375000001 13.2294921875  C 7.108203125 11.7158203125  6.2 9.889322916666666  6.2 7.75  C 6.2 5.610677083333335  7.108203125 3.7841796875  8.924609375000001 2.2705078125  C 10.741015625000001 0.7568359375  12.932812499999999 0  15.5 0  C 18.0671875 0  20.258984375 0.7568359375  22.075390625 2.2705078125  Z " fill-rule="nonzero" fill="#ffffff" stroke="none" transform="matrix(1 0 0 1 3 0 )" />
  </g>
</svg>