<?xml version="1.0" encoding="utf-8"?>
<svg version="1.1" xmlns:xlink="http://www.w3.org/1999/xlink" width="31px" height="31px" xmlns="http://www.w3.org/2000/svg">
  <g>
    <path d="M 30.434895833333336 0.521634615384617  C 30.811631944444443 0.8693910256410226  31 1.2916666666666656  31 1.788461538461539  L 31 22.653846153846157  C 31 23.27483974358974  30.771267361111107 23.82752403846154  30.313802083333336 24.31189903846154  C 29.856336805555557 24.79627403846154  29.277777777777782 25.171975160256412  28.578125 25.439002403846157  C 27.878472222222225 25.706029647435898  27.182183159722225 25.904747596153843  26.4892578125 26.03515625  C 25.796332465277782 26.165564903846157  25.147135416666664 26.23076923076923  24.541666666666664 26.23076923076923  C 23.936197916666664 26.23076923076923  23.287000868055557 26.165564903846157  22.594075520833336 26.03515625  C 21.90115017361111 25.904747596153843  21.20486111111111 25.706029647435898  20.505208333333336 25.439002403846157  C 19.805555555555557 25.171975160256412  19.226996527777782 24.79627403846154  18.76953125 24.31189903846154  C 18.31206597222222 23.82752403846154  18.083333333333336 23.27483974358974  18.083333333333336 22.653846153846157  C 18.083333333333336 22.032852564102566  18.31206597222222 21.48016826923077  18.76953125 20.99579326923077  C 19.226996527777782 20.51141826923077  19.805555555555557 20.135717147435898  20.505208333333336 19.868689903846157  C 21.20486111111111 19.60166266025641  21.90115017361111 19.40294471153846  22.594075520833336 19.27253605769231  C 23.287000868055557 19.142127403846157  23.936197916666664 19.076923076923077  24.541666666666664 19.076923076923077  C 25.954427083333336 19.076923076923077  27.24609375 19.319110576923077  28 19.803485576923077  L 28 9.799278846153847  L 13 14.21454326923077  L 13 27.423076923076923  C 12.916666666666668 28.044070512820515  12.687934027777779 28.59675480769231  12.23046875 29.08112980769231  C 11.773003472222223 29.56550480769231  11.194444444444446 29.941205929487182  10.494791666666668 30.208233173076923  C 9.795138888888891 30.475260416666664  9.098849826388891 30.673978365384617  8.405924479166668 30.80438701923077  C 7.7129991319444455 30.934795673076923  7.063802083333334 31  6.458333333333334 31  C 5.852864583333334 31  5.203667534722223 30.934795673076923  4.5107421875 30.80438701923077  C 3.817816840277778 30.673978365384617  3.121527777777778 30.475260416666664  2.421875 30.208233173076923  C 1.7222222222222223 29.941205929487182  1.1436631944444444 29.56550480769231  0.6861979166666667 29.08112980769231  C 0.22873263888888887 28.59675480769231  0 28.044070512820515  0 27.423076923076923  C 0 26.802083333333336  0.22873263888888887 26.24939903846154  0.6861979166666667 25.76502403846154  C 1.1436631944444444 25.28064903846154  1.7222222222222223 24.904947916666664  2.421875 24.637920673076923  C 3.121527777777778 24.370893429487182  3.817816840277778 24.17217548076923  4.5107421875 24.041766826923077  C 5.203667534722223 23.911358173076923  5.852864583333334 23.846153846153843  6.458333333333334 23.846153846153843  C 7.87109375 23.846153846153843  9.162760416666668 24.088341346153843  10.333333333333332 24.572716346153843  L 10.333333333333332 6.557692307692308  C 10.333333333333332 6.172676282051279  10.461154513888891 5.821814903846152  10.716796875 5.505108173076922  C 10.972439236111112 5.188401442307692  11.302083333333332 4.967948717948714  11.705729166666668 4.84375  L 28.497395833333336 0.0745192307692305  C 28.658854166666664 0.0248397435897435  28.847222222222225 0  29.0625 0  C 29.600694444444446 0  30.058159722222225 0.1738782051282045  30.434895833333336 0.521634615384617  Z " fill-rule="nonzero" fill="#ffffff" stroke="none" />
  </g>
</svg>