<?xml version="1.0" encoding="utf-8"?>
<svg version="1.1" xmlns:xlink="http://www.w3.org/1999/xlink" width="31px" height="31px" xmlns="http://www.w3.org/2000/svg">
  <g>
    <path d="M 8.59765625 0.06919642857143005  C 8.678385416666668 0.02306547619047783  8.764880952380954 0  8.857142857142856 0  C 9.007068452380954 0  9.136811755952383 0.054780505952382264  9.246372767857144 0.16434151785714335  C 9.355933779761907 0.27390252976190443  9.410714285714285 0.40364583333333104  10 0.55357142857143  L 10 26.017857142857142  C 9.410714285714285 26.248511904761905  9.312686011904763 26.409970238095237  9.116629464285715 26.502232142857142  L 0.8130580357142857 30.93080357142857  C 0.7323288690476192 30.976934523809526  0.6458333333333334 31  0.5535714285714285 31  C 0.40364583333333337 31  0.27390252976190477 30.945219494047617  0.16434151785714288 30.835658482142858  C 0.05478050595238095 30.726097470238095  0 30.596354166666668  0 30.44642857142857  L 0 4.982142857142857  C 0 4.751488095238092  0.0980282738095238 4.590029761904761  0.2940848214285714 4.497767857142857  L 8.59765625 0.06919642857143005  Z M 30.18694196428571 0.06919642857143005  C 30.267671130952387 0.02306547619047783  30.35416666666667 0  30.44642857142857 0  C 30.59635416666667 0  30.7260974702381 0.054780505952382264  30.835658482142858 0.16434151785714335  C 30.94521949404762 0.27390252976190443  31 0.40364583333333104  31 0.55357142857143  L 31 26.017857142857142  C 31 26.248511904761905  30.901971726190478 26.409970238095237  30.70591517857143 26.502232142857142  L 22.40234375 30.93080357142857  C 22.321614583333336 30.976934523809526  22.23511904761905 31  22.142857142857142 31  C 21.99293154761905 31  21.86318824404762 30.945219494047617  21.753627232142858 30.835658482142858  C 21.644066220238095 30.726097470238095  21.58928571428571 30.596354166666668  21 30.44642857142857  L 21 4.982142857142857  C 21.58928571428571 4.751488095238092  21.687313988095237 4.590029761904761  21.88337053571429 4.497767857142857  L 30.18694196428571 0.06919642857143005  Z M 10.682198660714285 0.16434151785714335  C 10.791759672619047 0.054780505952382264  10.921502976190476 0  11.071428571428571 0  C 11.163690476190476 0  11.244419642857144 0.01729910714285665  11.313616071428571 0.051897321428569954  L 20.17075892857143 4.48046875  C 20.37834821428571 4.595796130952379  20.482142857142858 4.763020833333331  20 4.982142857142857  L 20 30.44642857142857  C 20.482142857142858 30.596354166666668  20.427362351190478 30.726097470238095  20.31780133928571 30.835658482142858  C 20.208240327380953 30.945219494047617  20.078497023809526 31  19.92857142857143 31  C 19.836309523809526 31  19.755580357142858 30.982700892857142  19.68638392857143 30.94810267857143  L 10.829241071428571 26.51953125  C 10.621651785714285 26.404203869047617  10.517857142857144 26.236979166666668  11 26.017857142857142  L 11 0.55357142857143  C 10.517857142857144 0.40364583333333104  10.572637648809526 0.27390252976190443  10.682198660714285 0.16434151785714335  Z " fill-rule="nonzero" fill="#78d28d" stroke="none" />
  </g>
</svg>