<?xml version="1.0" encoding="utf-8"?>
<svg version="1.1" xmlns:xlink="http://www.w3.org/1999/xlink" width="31px" height="31px" xmlns="http://www.w3.org/2000/svg">
  <g transform="matrix(1 0 0 1 -18 0 )">
    <path d="M 8.266666666666666 11.07142857142857  C 8.266666666666666 12.674479166666666  8.702604166666665 14.150669642857144  9.574479166666666 15.5  C 7.830729166666667 15.557663690476192  6.404513888888889 16.295758928571427  5.295833333333333 17.71428571428571  L 3.1322916666666667 17.71428571428571  C 2.2496527777777775 17.71428571428571  1.5069444444444446 17.480747767857142  0.9041666666666667 17.013671875  C 0.3013888888888888 16.546595982142858  0 15.86328125  0 14.96372767857143  C 0 10.89267113095238  0.667361111111111 8.857142857142856  2.0020833333333337 8.857142857142856  C 2.0666666666666664 8.857142857142856  2.30078125 8.978236607142856  2.704427083333333 9.220424107142856  C 3.108072916666667 9.462611607142856  3.6328125 9.707682291666666  4.278645833333334 9.955636160714286  C 4.924479166666666 10.203590029761905  5.564930555555556 10.327566964285714  6.2 10.327566964285714  C 6.921180555555556 10.327566964285714  7.636979166666667 10.194940476190474  8.347395833333334 9.9296875  C 8.293576388888889 10.356398809523805  8.266666666666666 10.736979166666666  8.266666666666666 11.07142857142857  Z M 26.810156250000002 24.72907366071429  C 26.847829861111116 25.31147693452381  26.866666666666667 25.908296130952383  26.866666666666667 26.51953125  C 26.866666666666667 27.90345982142857  26.473784722222224 28.996186755952383  25.688020833333333 29.79771205357143  C 24.90225694444445 30.599237351190474  23.858159722222226 31  22.55572916666667 31  L 8.444270833333334 31  C 7.141840277777778 31  6.097743055555557 30.599237351190474  5.311979166666667 29.79771205357143  C 4.526215277777778 28.996186755952383  4.133333333333333 27.90345982142857  4.133333333333333 26.51953125  C 4.133333333333333 25.908296130952383  4.15217013888889 25.31147693452381  4.1898437500000005 24.72907366071429  C 4.227517361111112 24.146670386904763  4.302864583333333 23.51813616071429  4.415885416666667 22.843470982142858  C 4.5289062499999995 22.168805803571427  4.671527777777778 21.543154761904763  4.84375 20.966517857142858  C 5.0159722222222225 20.38988095238095  5.247395833333334 19.82765997023809  5.538020833333333 19.27985491071429  C 5.828645833333333 18.732049851190474  6.162326388888889 18.264973958333332  6.5390625 17.878627232142858  C 6.915798611111112 17.492280505952383  7.375954861111112 17.183779761904763  7.91953125 16.953125  C 8.463107638888891 16.722470238095234  9.063194444444445 16.607142857142858  9.719791666666666 16.607142857142858  C 9.827430555555557 16.607142857142858  10.058854166666666 16.731119791666664  10.4140625 16.97907366071429  C 10.769270833333334 17.227027529761905  11.162152777777777 17.503813244047617  11.592708333333334 17.809430803571427  C 12.023263888888891 18.115048363095234  12.599131944444446 18.39183407738095  13.3203125 18.639787946428573  C 14.041493055555556 18.88774181547619  14.768055555555556 19.01171875  15.5 19.01171875  C 16.231944444444444 19.01171875  16.958506944444444 18.88774181547619  17.6796875 18.639787946428573  C 18.40086805555556 18.39183407738095  18.976736111111116 18.115048363095234  19.40729166666667 17.809430803571427  C 19.837847222222223 17.503813244047617  20.230729166666666 17.227027529761905  20.5859375 16.97907366071429  C 20.941145833333334 16.731119791666664  21.172569444444445 16.607142857142858  21.28020833333333 16.607142857142858  C 21.93680555555556 16.607142857142858  22.536892361111114 16.722470238095234  23.080468749999998 16.953125  C 23.624045138888892 17.183779761904763  24.08420138888889 17.492280505952383  24.4609375 17.878627232142858  C 24.837673611111114 18.264973958333332  25.171354166666667 18.732049851190474  25.46197916666667 19.27985491071429  C 25.752604166666664 19.82765997023809  25.984027777777783 20.38988095238095  26.15625 20.966517857142858  C 26.328472222222224 21.543154761904763  26.471093749999998 22.168805803571427  26.58411458333333 22.843470982142858  C 26.69713541666667 23.51813616071429  26.772482638888892 24.146670386904763  26.810156250000002 24.72907366071429  Z M 9.122395833333332 1.2974330357142867  C 9.9296875 2.1623883928571432  10.333333333333332 3.2061011904761876  10.333333333333332 4.42857142857143  C 10.333333333333332 5.651041666666665  9.9296875 6.6947544642857135  9.122395833333332 7.55970982142857  C 8.315104166666668 8.42466517857143  7.340972222222223 8.857142857142856  6.2 8.857142857142856  C 5.059027777777779 8.857142857142856  4.084895833333333 8.42466517857143  3.2776041666666664 7.55970982142857  C 2.4703125 6.6947544642857135  2.0666666666666664 5.651041666666665  2.0666666666666664 4.42857142857143  C 2.0666666666666664 3.2061011904761876  2.4703125 2.1623883928571432  3.2776041666666664 1.2974330357142867  C 4.084895833333333 0.43247767857143005  5.059027777777779 0  6.2 0  C 7.340972222222223 0  8.315104166666668 0.43247767857143005  9.122395833333332 1.2974330357142867  Z M 19.88359375 6.374720982142857  C 21.09453125 7.672154017857143  21.7 9.237723214285714  21.7 11.07142857142857  C 21.7 12.90513392857143  21.09453125 14.470703125  19.88359375 15.768136160714286  C 18.67265625 17.065569196428573  17.211458333333333 17.71428571428571  15.5 17.71428571428571  C 13.788541666666669 17.71428571428571  12.32734375 17.065569196428573  11.116406249999999 15.768136160714286  C 9.905468749999999 14.470703125  9.299999999999999 12.90513392857143  9.299999999999999 11.07142857142857  C 9.299999999999999 9.237723214285714  9.905468749999999 7.672154017857143  11.116406249999999 6.374720982142857  C 12.32734375 5.07728794642857  13.788541666666669 4.42857142857143  15.5 4.42857142857143  C 17.211458333333333 4.42857142857143  18.67265625 5.07728794642857  19.88359375 6.374720982142857  Z M 28.99791666666667 8.857142857142856  C 30.332638888888894 8.857142857142856  31.000000000000007 10.89267113095238  31 14.96372767857143  C 31.000000000000007 15.86328125  30.698611111111113 16.546595982142858  30.09583333333333 17.013671875  C 29.493055555555557 17.480747767857142  28.750347222222224 17.71428571428571  27.867708333333333 17.71428571428571  L 25.70416666666667 17.71428571428571  C 24.595486111111114 16.295758928571427  23.169270833333336 15.557663690476192  21.425520833333334 15.5  C 22.297395833333333 14.150669642857144  22.73333333333333 12.674479166666666  22.73333333333333 11.07142857142857  C 22.73333333333333 10.736979166666666  22.706423611111113 10.356398809523805  22.652604166666666 9.9296875  C 23.363020833333334 10.194940476190474  24.078819444444445 10.327566964285714  24.8 10.327566964285714  C 25.435069444444444 10.327566964285714  26.075520833333336 10.203590029761905  26.721354166666664 9.955636160714286  C 27.3671875 9.707682291666666  27.891927083333336 9.462611607142856  28.295572916666664 9.220424107142856  C 28.69921875 8.978236607142856  28.933333333333334 8.857142857142856  28.99791666666667 8.857142857142856  Z M 27.722395833333334 1.2974330357142867  C 28.529687499999998 2.1623883928571432  28.933333333333334 3.2061011904761876  28.933333333333334 4.42857142857143  C 28.933333333333334 5.651041666666665  28.529687499999998 6.6947544642857135  27.722395833333334 7.55970982142857  C 26.91510416666667 8.42466517857143  25.94097222222222 8.857142857142856  24.8 8.857142857142856  C 23.65902777777778 8.857142857142856  22.684895833333336 8.42466517857143  21.877604166666664 7.55970982142857  C 21.0703125 6.6947544642857135  20.666666666666664 5.651041666666665  20.666666666666664 4.42857142857143  C 20.666666666666664 3.2061011904761876  21.0703125 2.1623883928571432  21.877604166666664 1.2974330357142867  C 22.684895833333336 0.43247767857143005  23.65902777777778 0  24.8 0  C 25.94097222222222 0  26.91510416666667 0.43247767857143005  27.722395833333334 1.2974330357142867  Z " fill-rule="nonzero" fill="#ffffff" stroke="none" transform="matrix(1 0 0 1 18 0 )" />
  </g>
</svg>