<?xml version="1.0" encoding="utf-8"?>
<svg version="1.1" xmlns:xlink="http://www.w3.org/1999/xlink" width="31px" height="31px" xmlns="http://www.w3.org/2000/svg">
  <g transform="matrix(1 0 0 1 -178 -806 )">
    <path d="M 30.48871527777778 12.27704326923077  C 30.82957175925926 12.51302083333333  31 12.792467948717945  31 13.115384615384617  L 31 15.5  C 31 18.244791666666664  29.676938657407412 20.63251201923077  27.03081597222222 22.66316105769231  C 24.384693287037038 24.693810096153843  21.115162037037038 25.858173076923077  17.22222222222222 26.15625  L 17.22222222222222 28.615384615384617  L 24.11111111111111 28.615384615384617  C 24.577546296296298 28.615384615384617  24.98119212962963 28.733373397435898  25.32204861111111 28.96935096153846  C 25.662905092592595 29.205328525641026  25.83333333333334 29.484775641025642  25.833333333333336 29.80769230769231  C 25.83333333333334 30.130608974358974  25.662905092592595 30.410056089743588  25.32204861111111 30.646033653846153  C 24.98119212962963 30.882011217948723  24.577546296296298 31  24.11111111111111 31  L 6.888888888888888 31  C 6.422453703703704 31  6.018807870370371 30.882011217948723  5.677951388888888 30.646033653846153  C 5.3370949074074066 30.410056089743588  5.166666666666666 30.130608974358974  5.166666666666666 29.80769230769231  C 5.166666666666666 29.484775641025642  5.3370949074074066 29.205328525641026  5.677951388888888 28.96935096153846  C 6.018807870370371 28.733373397435898  6.422453703703704 28.615384615384617  6.888888888888888 28.615384615384617  L 13.777777777777777 28.615384615384617  L 13.777777777777777 26.15625  C 9.884837962962964 25.858173076923077  6.615306712962964 24.693810096153843  3.9691840277777777 22.66316105769231  C 1.3230613425925926 20.63251201923077  0 18.244791666666664  0 15.5  L 0 13.115384615384617  C 0 12.792467948717945  0.17042824074074076 12.51302083333333  0.5112847222222222 12.27704326923077  C 0.8521412037037037 12.041065705128204  1.2557870370370372 11.923076923076922  1.722222222222222 11.923076923076922  C 2.1886574074074074 11.923076923076922  2.592303240740741 12.041065705128204  2.9331597222222223 12.27704326923077  C 3.2740162037037037 12.51302083333333  3.444444444444444 12.792467948717945  3.444444444444444 13.115384615384617  L 3.444444444444444 15.5  C 3.444444444444444 17.797676282051277  4.623987268518519 19.76312099358974  6.983072916666666 21.396334134615383  C 9.342158564814815 23.029547275641022  12.18113425925926 23.846153846153843  15.5 23.846153846153843  C 18.81886574074074 23.846153846153843  21.657841435185183 23.029547275641022  24.016927083333336 21.396334134615383  C 26.376012731481485 19.76312099358974  27.555555555555554 17.797676282051277  27.555555555555554 15.5  L 27.555555555555554 13.115384615384617  C 27.555555555555554 12.792467948717945  27.7259837962963 12.51302083333333  28.06684027777778 12.27704326923077  C 28.40769675925926 12.041065705128204  28.811342592592595 11.923076923076922  29.27777777777778 11.923076923076922  C 29.74421296296297 11.923076923076922  30.1478587962963 12.041065705128204  30.48871527777778 12.27704326923077  Z M 21.58159722222222 1.751201923076922  C 23.267939814814817 2.91866987179487  24.11111111111111 4.322115384615383  24.11111111111111 5.961538461538461  L 24.11111111111111 15.5  C 24.11111111111111 17.139423076923077  23.267939814814817 18.542868589743588  21.58159722222222 19.71033653846154  C 19.89525462962963 20.877804487179485  17.868055555555554 21.46153846153846  15.5 21.46153846153846  C 13.131944444444446 21.46153846153846  11.104745370370372 20.877804487179485  9.418402777777777 19.71033653846154  C 7.732060185185186 18.542868589743588  6.888888888888888 17.139423076923077  6.888888888888888 15.5  L 6.888888888888888 5.961538461538461  C 6.888888888888888 4.322115384615383  7.732060185185186 2.91866987179487  9.418402777777777 1.751201923076922  C 11.104745370370372 0.5837339743589774  13.131944444444446 0  15.5 0  C 17.868055555555554 0  19.89525462962963 0.5837339743589774  21.58159722222222 1.751201923076922  Z " fill-rule="nonzero" fill="#ffffff" stroke="none" transform="matrix(1 0 0 1 178 806 )" />
  </g>
</svg>