<?xml version="1.0" encoding="utf-8"?>
<svg version="1.1" xmlns:xlink="http://www.w3.org/1999/xlink" width="19px" height="19px" xmlns="http://www.w3.org/2000/svg">
  <g transform="matrix(1 0 0 1 -45 -617 )">
    <path d="M 2.814375 15.6044921875  C 2.964791666666667 15.451931423611112  3.04 15.264322916666666  3.04 15.041666666666666  C 3.04 14.827256944444446  2.964791666666667 14.641710069444446  2.814375 14.485026041666666  C 2.663958333333334 14.328342013888888  2.4858333333333333 14.25  2.28 14.25  C 2.06625 14.25  1.8861458333333334 14.328342013888888  1.7396875 14.485026041666666  C 1.5932291666666667 14.641710069444446  1.52 14.827256944444446  1.52 15.041666666666666  C 1.52 15.264322916666666  1.5932291666666667 15.451931423611112  1.7396875 15.6044921875  C 1.8861458333333334 15.757052951388888  2.06625 15.833333333333334  2.28 15.833333333333334  C 2.4858333333333333 15.833333333333334  2.663958333333334 15.757052951388888  2.814375 15.6044921875  Z M 4.714375 8.151692708333334  C 4.864791666666667 8.30837673611111  4.94 8.49392361111111  4.94 8.708333333333334  L 4.94 16.625  C 4.94 16.83940972222222  4.864791666666667 17.02495659722222  4.714375 17.181640625  C 4.563958333333334 17.33832465277778  4.385833333333334 17.416666666666664  4.18 17.416666666666664  L 0.76 17.416666666666664  C 0.5541666666666667 17.416666666666664  0.37604166666666666 17.33832465277778  0.225625 17.181640625  C 0.07520833333333332 17.02495659722222  0 16.83940972222222  0 16.625  L 0 8.708333333333334  C 0 8.49392361111111  0.07520833333333332 8.30837673611111  0.225625 8.151692708333334  C 0.37604166666666666 7.995008680555556  0.5541666666666667 7.916666666666666  0.76 7.916666666666666  L 4.18 7.916666666666666  C 4.385833333333334 7.916666666666666  4.563958333333334 7.995008680555556  4.714375 8.151692708333334  Z M 18.323125 7.038411458333334  C 18.774375 7.508463541666666  19 8.065104166666666  19 8.708333333333334  C 19 9.417534722222221  18.78229166666667 10.031901041666668  18.346875 10.551432291666668  C 18.465625000000003 10.914279513888888  18.525000000000002 11.227647569444445  18.525 11.491536458333332  C 18.548750000000002 12.118272569444445  18.37854166666667 12.68315972222222  18.014375 13.186197916666668  C 18.148958333333336 13.64800347222222  18.148958333333336 14.13042534722222  18.014375 14.633463541666666  C 17.895625 15.103515625  17.681875 15.491102430555554  17.373125 15.796223958333334  C 17.444375 16.719835069444446  17.250416666666666 17.466145833333336  16.79125 18.03515625  C 16.284583333333334 18.66189236111111  15.504791666666666 18.983506944444446  14.451875 19  L 14.024375000000001 19  L 13.121875000000001 19  L 12.920000000000002 19  C 12.397499999999999 19  11.8275 18.93608940972222  11.209999999999999 18.808268229166664  C 10.5925 18.68044704861111  10.111562500000002 18.560872395833336  9.7671875 18.449544270833336  C 9.4228125 18.338216145833336  8.945833333333335 18.17534722222222  8.33625 17.9609375  C 7.3625 17.606336805555554  6.7370833333333335 17.424913194444446  6.460000000000001 17.416666666666664  C 6.254166666666667 17.40842013888889  6.076041666666667 17.328016493055554  5.925625 17.175455729166664  C 5.7752083333333335 17.02289496527778  5.700000000000001 16.83940972222222  5.7 16.625  L 5.7 8.695963541666666  C 5.700000000000001 8.489800347222221  5.77125 8.310438368055554  5.91375 8.157877604166666  C 6.05625 8.005316840277779  6.226458333333334 7.920789930555554  6.424375 7.904296875  C 6.614375000000001 7.887803819444442  6.915208333333334 7.644531249999998  7.326875 7.174479166666666  C 7.738541666666667 6.704427083333332  8.138333333333334 6.205512152777776  8.52625 5.677734375  C 9.064583333333335 4.960286458333334  9.464375000000002 4.465494791666666  9.725624999999999 4.193359375  C 9.868125000000001 4.044921875  9.990833333333335 3.847005208333334  10.09375 3.599609375  C 10.196666666666667 3.352213541666666  10.2659375 3.152235243055554  10.301562500000001 2.999674479166666  C 10.3371875 2.847113715277776  10.390625 2.59765625  10.461875000000001 2.251302083333334  C 10.517291666666667 1.9296875  10.566770833333335 1.678168402777776  10.610312500000001 1.496744791666666  C 10.653854166666667 1.315321180555554  10.731041666666668 1.100911458333334  10.841875000000002 0.853515625  C 10.952708333333335 0.606119791666666  11.087291666666667 0.399956597222222  11.245625 0.23502604166666596  C 11.396041666666667 0.07834201388888795  11.574166666666668 0  11.78 0  C 12.144166666666667 0  12.470729166666667 0.043294270833334036  12.759687499999998 0.1298828125  C 13.048645833333335 0.21647135416666596  13.286145833333334 0.3236762152777759  13.4721875 0.45149739583333404  C 13.658229166666667 0.579318576388888  13.8165625 0.746310763888888  13.947187499999998 0.952473958333334  C 14.0778125 1.158637152777776  14.172812500000001 1.344184027777776  14.232187499999998 1.509114583333334  C 14.2915625 1.674045138888888  14.339062499999999 1.880208333333334  14.3746875 2.127604166666666  C 14.4103125 2.375  14.430104166666668 2.560546875  14.4340625 2.684244791666666  C 14.438020833333335 2.807942708333334  14.44 2.96875  14.44 3.166666666666666  C 14.44 3.480034722222222  14.402395833333337 3.793402777777776  14.327187499999999 4.106770833333334  C 14.251979166666667 4.4201388888888875  14.176770833333334 4.667534722222222  14.1015625 4.848958333333334  C 14.026354166666668 5.030381944444442  13.9175 5.261284722222222  13.775 5.541666666666666  C 13.75125 5.591145833333334  13.711666666666666 5.665364583333334  13.65625 5.764322916666666  C 13.600833333333336 5.86328125  13.557291666666668 5.953993055555554  13.525625000000002 6.036458333333334  C 13.493958333333335 6.11892361111111  13.462291666666667 6.217881944444442  13.430625000000001 6.333333333333334  L 16.72 6.333333333333334  C 17.3375 6.333333333333334  17.871875 6.568359375  18.323125 7.038411458333334  Z " fill-rule="nonzero" fill="#1e98d7" stroke="none" transform="matrix(1 0 0 1 45 617 )" />
  </g>
</svg>