<?xml version="1.0" encoding="utf-8"?>
<svg version="1.1" xmlns:xlink="http://www.w3.org/1999/xlink" width="24px" height="21px" xmlns="http://www.w3.org/2000/svg">
  <g transform="matrix(1 0 0 1 -31 -478 )">
    <path d="M 17.109375 2.700195312499999  C 15.524553571428573 2.066731770833332  13.82142857142857 1.7500000000000009  12 1.7500000000000009  C 10.178571428571429 1.7500000000000009  8.475446428571429 2.066731770833332  6.890625 2.700195312499999  C 5.305803571428571 3.3336588541666665  4.046875 4.188151041666666  3.1138392857142856 5.263671874999999  C 2.1808035714285716 6.33919270833333  1.7142857142857142 7.501302083333332  1.7142857142857142 8.75  C 1.7142857142857142 9.770833333333334  2.0334821428571432 10.743815104166668  2.671875 11.6689453125  C 3.310267857142857 12.594075520833332  4.209821428571429 13.393880208333332  5.370535714285714 14.068359375  L 6.535714285714285 14.751953124999998  L 6.174107142857143 16.064453125  C 5.959821428571429 16.893880208333336  5.647321428571429 17.677734375  5.236607142857142 18.416015625  C 6.593750000000001 17.841796875  7.821428571428571 17.0625  8.919642857142858 16.078125  L 9.495535714285715 15.558593750000002  L 10.258928571428571 15.640625000000002  C 10.875 15.713541666666666  11.455357142857142 15.75  12 15.75  C 13.82142857142857 15.75  15.524553571428573 15.433268229166664  17.109375 14.799804687500002  C 18.69419642857143 14.16634114583333  19.953125 13.311848958333332  20.886160714285715 12.236328125000002  C 21.81919642857143 11.160807291666666  22.285714285714285 9.998697916666666  22.285714285714285 8.75  C 22.285714285714285 7.501302083333332  21.81919642857143 6.33919270833333  20.886160714285715 5.263671874999999  C 19.953125 4.188151041666666  18.69419642857143 3.3336588541666665  17.109375 2.700195312499999  Z M 22.392857142857142 4.354492187500001  C 23.464285714285715 5.698893229166665  24 7.164062500000001  24 8.75  C 24 10.3359375  23.464285714285715 11.801106770833332  22.392857142857142 13.1455078125  C 21.32142857142857 14.489908854166664  19.86607142857143 15.551757812499998  18.026785714285715 16.3310546875  C 16.1875 17.1103515625  14.178571428571429 17.5  12 17.5  C 11.375 17.5  10.727678571428571 17.463541666666668  10.058035714285715 17.390625  C 8.290178571428571 18.985677083333336  6.236607142857144 20.088541666666668  3.8973214285714284 20.69921875  C 3.4598214285714293 20.826822916666668  2.950892857142857 20.927083333333332  2.3705357142857144 21  L 2.303571428571429 21  C 2.169642857142857 21  2.049107142857143 20.9521484375  1.9419642857142858 20.8564453125  C 1.8348214285714288 20.7607421875  1.7633928571428577 20.635416666666664  1.7276785714285712 20.48046875  L 1.7276785714285712 20.466796875  C 1.7008928571428574 20.430338541666668  1.6986607142857144 20.375651041666668  1.7209821428571428 20.302734375  C 1.7433035714285716 20.229817708333332  1.7522321428571432 20.184244791666664  1.7477678571428572 20.166015625  C 1.7433035714285716 20.147786458333332  1.7633928571428577 20.1044921875  1.8080357142857142 20.0361328125  L 1.8883928571428572 19.9130859375  C 1.8883928571428572 19.9130859375  1.9196428571428572 19.874348958333336  1.9821428571428572 19.796875  C 2.0446428571428577 19.719401041666668  2.0803571428571432 19.678385416666668  2.0892857142857144 19.673828125  C 2.1517857142857144 19.600911458333336  2.290178571428571 19.443684895833336  2.5044642857142856 19.2021484375  C 2.71875 18.960611979166668  2.872767857142857 18.787434895833336  2.966517857142857 18.6826171875  C 3.0602678571428577 18.577799479166664  3.1986607142857144 18.397786458333336  3.3816964285714284 18.142578125  C 3.5647321428571432 17.887369791666664  3.7098214285714284 17.654947916666664  3.8169642857142856 17.4453125  C 3.9241071428571423 17.235677083333332  4.044642857142858 16.966796875  4.178571428571429 16.638671875  C 4.3125 16.310546875  4.428571428571429 15.964192708333334  4.526785714285714 15.599609375000002  C 3.125 14.788411458333332  2.0200892857142856 13.785807291666666  1.2120535714285714 12.591796875  C 0.4040178571428571 11.39778645833333  0 10.1171875  0 8.75  C 0 7.164062500000001  0.5357142857142857 5.698893229166665  1.6071428571428572 4.354492187500001  C 2.678571428571429 3.010091145833332  4.133928571428571 1.9482421875  5.973214285714286 1.1689453125  C 7.812500000000001 0.3896484375  9.821428571428573 0  12 0  C 14.178571428571429 0  16.1875 0.3896484375  18.026785714285715 1.1689453125  C 19.86607142857143 1.9482421875  21.32142857142857 3.010091145833332  22.392857142857142 4.354492187500001  Z " fill-rule="nonzero" fill="#000000" stroke="none" transform="matrix(1 0 0 1 31 478 )" />
  </g>
</svg>