<?xml version="1.0" encoding="utf-8"?>
<svg version="1.1" xmlns:xlink="http://www.w3.org/1999/xlink" width="23px" height="22px" xmlns="http://www.w3.org/2000/svg">
  <g transform="matrix(1 0 0 1 -8 -3 )">
    <path d="M 21.768544339096486 0.13489409141582964  C 22.067856478899426 -0.036789297658865294  22.358616843279425 -0.02861389817911908  22.640825432236475 0.15942028985507317  C 22.923034021193534 0.35562987736900675  23.03848298940324 0.6172426607209198  22.987172336865587 0.9442586399108148  L 19.70329057445622 19.780379041248608  C 19.660531697341515 20.017465626161275  19.523703290574456 20.20141211445559  19.29280535415505 20.33221850613155  C 19.173080498233873 20.397621701969527  19.040527979178286 20.430323299888517  18.89514779698829 20.430323299888517  C 18.801078267335935 20.430323299888517  18.698456962260643 20.40988480118915  18.58728388176241 20.369007803790414  L 11.827105409927496 17.732441471571907  L 8.004461795872839 21.74247491638796  C 7.850529838259899 21.914158305462653  7.649563115820785 22  7.401561628555493 22  C 7.281836772634319 22  7.183491355270496 21.983649201040507  7.106525376464027 21.950947603121516  C 6.944041643428147 21.893719806763286  6.815765012084031 21.797658862876254  6.721695482431678 21.662764771460424  C 6.6276259527793275 21.527870680044593  6.580591187953152 21.378669639539204  6.580591187953152 21.215161649944257  L 6.580591187953152 15.672240802675585  L 0.5259341885108756 13.30546265328874  C 0.20951849786205615 13.191007060572277  0.0384829894032348 12.966183574879226  0.012827663134411601 12.630992196209586  C -0.012827663134411601 12.312151616499442  0.12400074363264546 12.070977331846896  0.4233128834355829 11.907469342251952  L 21.768544339096486 0.13489409141582964  Z M 11.942554378137201 16.07692307692308  L 18.253764640267708 18.54180602006689  L 21.088678192972672 2.317725752508362  L 2.693809258226436 12.459308807134892  L 7.003904071388734 14.139353400222966  L 18.074177356385945 6.303232998885171  L 11.942554378137201 16.07692307692308  Z " fill-rule="nonzero" fill="#000000" stroke="none" transform="matrix(1 0 0 1 8 3 )" />
  </g>
</svg>