<?xml version="1.0" encoding="utf-8"?>
<svg version="1.1" xmlns:xlink="http://www.w3.org/1999/xlink" width="37px" height="37px" xmlns="http://www.w3.org/2000/svg">
  <g transform="matrix(1 0 0 1 -30 -51 )">
    <path d="M 30.49609375 15.681640625  C 30.78515625 15.392578125  30.9296875 15.03125  30.9296875 14.59765625  C 30.9296875 14.148003472222221  30.78515625 13.778645833333334  30.49609375 13.489583333333334  L 28.304036458333336 11.321614583333334  C 27.99891493055556 11.016493055555552  27.63758680555556 10.863932291666666  27.220052083333336 10.863932291666666  C 26.802517361111114 10.863932291666666  26.441189236111114 11.016493055555552  26.136067708333336 11.321614583333334  L 16.307942708333332 21.125651041666668  L 10.863932291666668 15.681640625  C 10.55881076388889 15.376519097222221  10.19748263888889 15.223958333333334  9.779947916666668 15.223958333333334  C 9.362413194444446 15.223958333333334  9.001085069444445 15.376519097222221  8.695963541666666 15.681640625  L 6.50390625 17.849609375  C 6.21484375 18.138671875  6.070312500000001 18.508029513888886  6.0703125 18.957682291666668  C 6.070312500000001 19.391276041666668  6.21484375 19.752604166666668  6.50390625 20.041666666666668  L 15.223958333333332 28.76171875  C 15.529079861111112 29.066840277777775  15.890407986111112 29.219401041666664  16.307942708333332 29.219401041666664  C 16.741536458333332 29.219401041666664  17.110894097222225 29.066840277777775  17.416015625 28.76171875  L 30.49609375 15.681640625  Z M 34.518880208333336 9.2138671875  C 36.17296006944444 12.048285590277775  37 15.14366319444444  37 18.5  C 37 21.856336805555557  36.17296006944444 24.951714409722218  34.518880208333336 27.7861328125  C 32.86480034722223 30.62055121527778  30.62055121527778 32.86480034722222  27.7861328125 34.518880208333336  C 24.951714409722225 36.17296006944445  21.856336805555557 37  18.5 37  C 15.143663194444446 37  12.048285590277779 36.17296006944445  9.2138671875 34.518880208333336  C 6.379448784722223 32.86480034722222  4.135199652777779 30.62055121527778  2.481119791666667 27.7861328125  C 0.8270399305555555 24.951714409722218  0 21.856336805555557  0 18.5  C 0 15.14366319444444  0.8270399305555555 12.048285590277775  2.481119791666667 9.2138671875  C 4.135199652777779 6.379448784722221  6.379448784722223 4.135199652777774  9.2138671875 2.481119791666665  C 12.048285590277779 0.8270399305555524  15.143663194444446 0  18.5 0  C 21.856336805555557 0  24.951714409722225 0.8270399305555524  27.7861328125 2.481119791666665  C 30.62055121527778 4.135199652777774  32.86480034722223 6.379448784722221  34.518880208333336 9.2138671875  Z " fill-rule="nonzero" fill="#78d28d" stroke="none" transform="matrix(1 0 0 1 30 51 )" />
  </g>
</svg>