<?xml version="1.0" encoding="utf-8"?>
<svg version="1.1" xmlns:xlink="http://www.w3.org/1999/xlink" width="36px" height="36px" xmlns="http://www.w3.org/2000/svg">
  <g transform="matrix(1 0 0 1 -35 -34 )">
    <path d="M 35.15151515151515 26.909090909090907  C 35.717171717171716 27.47474747474747  36 28.16161616161616  36 28.96969696969697  C 36 29.777777777777782  35.717171717171716 30.464646464646464  35.15151515151515 31.030303030303028  L 31.030303030303028 35.15151515151515  C 30.46464646464647 35.717171717171716  29.77777777777778 36  28.96969696969697 36  C 28.161616161616166 36  27.474747474747478 35.717171717171716  26.90909090909091 35.15151515151515  L 18 26.242424242424246  L 9.090909090909092 35.15151515151515  C 8.525252525252526 35.717171717171716  7.838383838383839 36  7.03030303030303 36  C 6.222222222222223 36  5.535353535353536 35.717171717171716  4.96969696969697 35.15151515151515  L 0.8484848484848485 31.030303030303028  C 0.2828282828282831 30.464646464646464  0 29.777777777777782  0 28.96969696969697  C 0 28.16161616161616  0.2828282828282831 27.47474747474747  0.8484848484848485 26.909090909090907  L 9.757575757575758 18  L 0.8484848484848485 9.09090909090909  C 0.2828282828282831 8.525252525252522  0 7.838383838383839  0 7.03030303030303  C 0 6.222222222222221  0.2828282828282831 5.53535353535353  0.8484848484848485 4.969696969696971  L 4.96969696969697 0.8484848484848486  C 5.535353535353536 0.28282828282828154  6.222222222222223 0  7.03030303030303 0  C 7.838383838383839 0  8.525252525252526 0.28282828282828154  9.090909090909092 0.8484848484848486  L 18 9.75757575757576  L 26.90909090909091 0.8484848484848486  C 27.474747474747478 0.28282828282828154  28.161616161616166 0  28.96969696969697 0  C 29.77777777777778 0  30.46464646464647 0.28282828282828154  31.030303030303028 0.8484848484848486  L 35.15151515151515 4.969696969696971  C 35.717171717171716 5.53535353535353  36 6.222222222222221  36 7.03030303030303  C 36 7.838383838383839  35.717171717171716 8.525252525252522  35.15151515151515 9.09090909090909  L 26.242424242424242 18  L 35.15151515151515 26.909090909090907  Z " fill-rule="nonzero" fill="#ffffff" stroke="none" transform="matrix(1 0 0 1 35 34 )" />
  </g>
</svg>