<?xml version="1.0" encoding="utf-8"?>
<svg version="1.1" xmlns:xlink="http://www.w3.org/1999/xlink" width="20px" height="20px" xmlns="http://www.w3.org/2000/svg">
  <g transform="matrix(1 0 0 1 -134 -691 )">
    <path d="M 18.929168990518683 0.12263099219620877  C 19.189440416434284 -0.033444816053513904  19.44227551589515 -0.026012634708290072  19.68767428890128 0.1449275362318847  C 19.93307306190742 0.32329988851727887  20.033463469046296 0.5611296915644726  19.9888455103179 0.858416945373468  L 17.13329615170106 17.98216276477146  C 17.096114519427402 18.197696023782978  16.9771332961517 18.364920104050537  16.776352481873957 18.483835005574136  C 16.672243911507717 18.543292456335934  16.55698085145938 18.573021181716832  16.430563301728945 18.573021181716832  C 16.3487637107269 18.573021181716832  16.259527793270124 18.55444072835377  16.162855549358618 18.517279821627646  L 10.284439486893476 16.120401337792643  L 6.960401561628555 19.765886287625417  C 6.826547685443391 19.921962095875138  6.651794013757204 20  6.436140546569994 20  C 6.332031976203756 20  6.246514221974344 19.98513563730955  6.179587283881762 19.95540691192865  C 6.038297081241867 19.903381642512077  5.926752184420897 19.816053511705686  5.844952593418851 19.693422519509475  C 5.763153002416806 19.57079152731327  5.722253206915784 19.435154217762914  5.722253206915784 19.286510590858416  L 5.722253206915784 14.247491638795985  L 0.45733407696597883 12.0958751393534  C 0.18218999814091838 11.991824600520252  0.03346346904629113 11.787439613526569  0.011154489682097046 11.482720178372352  C -0.011154489682097046 11.192865105908583  0.10782673359360476 10.97361575622445  0.3680981595092025 10.824972129319956  L 18.929168990518683 0.12263099219620877  Z M 10.384829894032348 14.615384615384617  L 15.872838817624093 16.8561872909699  L 18.33798103736754 2.1070234113712383  L 2.3424428332403795 11.32664437012263  L 6.090351366424986 12.853957636566333  L 15.716675962074735 5.730211817168338  L 10.384829894032348 14.615384615384617  Z " fill-rule="nonzero" fill="#000000" stroke="none" transform="matrix(1 0 0 1 134 691 )" />
  </g>
</svg>