<?xml version="1.0" encoding="utf-8"?>
<svg version="1.1" xmlns:xlink="http://www.w3.org/1999/xlink" width="39px" height="39px" xmlns="http://www.w3.org/2000/svg">
  <g transform="matrix(1 0 0 1 -49 -25 )">
    <path d="M 38.08080808080808 29.15151515151515  C 38.69360269360269 29.764309764309758  39 30.508417508417505  39 31.383838383838384  C 39 32.25925925925927  38.69360269360269 33.003367003367  38.08080808080808 33.61616161616161  L 33.61616161616161 38.08080808080808  C 33.00336700336701 38.69360269360269  32.25925925925926 39  31.383838383838384 39  C 30.508417508417512 39  29.76430976430977 38.69360269360269  29.151515151515152 38.08080808080808  L 19.5 28.42929292929293  L 9.84848484848485 38.08080808080808  C 9.235690235690237 38.69360269360269  8.491582491582491 39  7.616161616161616 39  C 6.740740740740741 39  5.996632996632997 38.69360269360269  5.383838383838384 38.08080808080808  L 0.9191919191919192 33.61616161616161  C 0.30639730639730667 33.003367003367  0 32.25925925925927  0 31.383838383838384  C 0 30.508417508417505  0.30639730639730667 29.764309764309758  0.9191919191919192 29.15151515151515  L 10.570707070707071 19.5  L 0.9191919191919192 9.848484848484848  C 0.30639730639730667 9.235690235690232  0 8.491582491582491  0 7.616161616161616  C 0 6.7407407407407405  0.30639730639730667 5.996632996632991  0.9191919191919192 5.383838383838385  L 5.383838383838384 0.9191919191919193  C 5.996632996632997 0.306397306397305  6.740740740740741 0  7.616161616161616 0  C 8.491582491582491 0  9.235690235690237 0.306397306397305  9.84848484848485 0.9191919191919193  L 19.5 10.570707070707073  L 29.151515151515152 0.9191919191919193  C 29.76430976430977 0.306397306397305  30.508417508417512 0  31.383838383838384 0  C 32.25925925925926 0  33.00336700336701 0.306397306397305  33.61616161616161 0.9191919191919193  L 38.08080808080808 5.383838383838385  C 38.69360269360269 5.996632996632991  39 6.7407407407407405  39 7.616161616161616  C 39 8.491582491582491  38.69360269360269 9.235690235690232  38.08080808080808 9.848484848484848  L 28.429292929292927 19.5  L 38.08080808080808 29.15151515151515  Z " fill-rule="nonzero" fill="#ffffff" stroke="none" transform="matrix(1 0 0 1 49 25 )" />
  </g>
</svg>