<?xml version="1.0" encoding="utf-8"?>
<svg version="1.1" xmlns:xlink="http://www.w3.org/1999/xlink" width="43px" height="46px" xmlns="http://www.w3.org/2000/svg">
  <g transform="matrix(1 0 0 1 -302 -30 )">
    <path d="M 41.91915760869565 20.342747111681643  C 42.639719202898554 21.031664527171586  43 21.917415489944368  43 23  C 43 24.062901155327346  42.639719202898554 24.958493795464268  41.91915760869565 25.686777920410783  L 22.90217391304348 44.90757381258023  C 22.14266304347826 45.635857937526744  21.256567028985508 46  20.24388586956522 46  C 19.250679347826086 46  18.374320652173914 45.635857937526744  17.614809782608695 44.90757381258023  L 15.42391304347826 42.693196405648266  C 14.683876811594203 41.945228925973474  14.313858695652174 41.04963628583654  14.313858695652174 40.00641848523748  C 14.313858695652174 38.96320068463843  14.683876811594203 38.0676080445015  15.42391304347826 37.3196405648267  L 23.983016304347828 28  L 3.4177989130434785 28  C 2.4051177536231885 28.66880616174583  1.582314311594203 28.2997432605905  0.9493885869565217 27.561617458279844  C 0.3164628623188405 26.82349165596919  0 25.93281985451433  0 24.889602053915276  L 0 21.110397946084724  C 0 20.06718014548566  0.3164628623188405 19.17650834403081  0.9493885869565217 18.438382541720156  C 1.582314311594203 17.7002567394095  2.4051177536231885 17.331193838254173  3.4177989130434785 18  L 23.983016304347828 18  L 15.42391304347826 8.650834403080875  C 14.683876811594203 7.942233632862644  14.313858695652174 7.056482670089862  14.313858695652174 5.993581514762516  C 14.313858695652174 4.930680359435176  14.683876811594203 4.044929396662388  15.42391304347826 3.336328626444158  L 17.614809782608695 1.1219512195121961  C 18.354846014492757 0.3739837398373953  19.231204710144926 0  20.24388586956522 0  C 21.276041666666668 0  22.16213768115942 0.3739837398373953  22.90217391304348 1.1219512195121961  L 41.91915760869565 20.342747111681643  Z " fill-rule="nonzero" fill="#ffffff" stroke="none" transform="matrix(1 0 0 1 302 30 )" />
  </g>
</svg>