<?xml version="1.0" encoding="utf-8"?>
<svg version="1.1" xmlns:xlink="http://www.w3.org/1999/xlink" width="36px" height="38px" xmlns="http://www.w3.org/2000/svg">
  <g transform="matrix(1 0 0 1 -43 -29 )">
    <path d="M 35.205163043478265 15.231707317073171  C 35.73505434782608 15.841463414634148  36 16.57723577235772  36 17.4390243902439  L 36 20.5609756097561  C 36 21.422764227642276  35.73505434782608 22.15853658536585  35.205163043478265 22.76829268292683  C 34.67527173913044 23.378048780487806  33.986413043478265 23.682926829268297  33.138586956521735 23  L 15.921195652173914 23  L 23.08695652173913 30.853658536585364  C 23.706521739130437 31.4390243902439  24.01630434782609 32.170731707317074  24.01630434782609 33.048780487804876  C 24.01630434782609 33.926829268292686  23.706521739130437 34.65853658536585  23.08695652173913 35.24390243902439  L 21.252717391304348 37.09756097560975  C 20.649456521739133 37.69918699186992  19.915760869565215 38  19.05163043478261 38  C 18.203804347826086 38  17.461956521739133 37.69918699186992  16.82608695652174 37.09756097560975  L 0.9048913043478262 21.195121951219512  C 0.3016304347826089 20.59349593495935  0 19.861788617886177  0 19  C 0 18.15447154471545  0.3016304347826089 17.414634146341463  0.9048913043478262 16.78048780487805  L 16.82608695652174 0.9268292682926838  C 17.445652173913047 0.30894308943089177  18.1875 0  19.05163043478261 0  C 19.89945652173913 0  20.633152173913047 0.30894308943089177  21.252717391304348 0.9268292682926838  L 23.08695652173913 2.7317073170731705  C 23.706521739130437 3.349593495934958  24.01630434782609 4.089430894308938  24.01630434782609 4.951219512195122  C 24.01630434782609 5.813008130081298  23.706521739130437 6.552845528455282  23.08695652173913 7.170731707317073  L 15.921195652173914 15  L 33.138586956521735 15  C 33.986413043478265 14.317073170731708  34.67527173913044 14.621951219512194  35.205163043478265 15.231707317073171  Z " fill-rule="nonzero" fill="#ffffff" stroke="none" transform="matrix(1 0 0 1 43 29 )" />
  </g>
</svg>