<?xml version="1.0" encoding="utf-8"?>
<svg version="1.1" xmlns:xlink="http://www.w3.org/1999/xlink" width="40px" height="40px" xmlns="http://www.w3.org/2000/svg">
  <g transform="matrix(1 0 0 1 -23 -30 )">
    <path d="M 39.05723905723906 29.898989898989896  C 39.68574635241302 30.527497194163857  40 31.290684624017953  40 32.18855218855219  C 40 33.086419753086425  39.68574635241302 33.84960718294052  39.05723905723906 34.47811447811448  L 34.47811447811448 39.05723905723906  C 33.849607182940524 39.68574635241302  33.08641975308642 40  32.18855218855219 40  C 31.290684624017963 40  30.527497194163864 39.68574635241302  29.8989898989899 39.05723905723906  L 20 29.158249158249163  L 10.101010101010102 39.05723905723906  C 9.47250280583614 39.68574635241302  8.709315375982044 40  7.811447811447811 40  C 6.913580246913581 40  6.150392817059485 39.68574635241302  5.5218855218855225 39.05723905723906  L 0.9427609427609428 34.47811447811448  C 0.3142536475869812 33.84960718294052  0 33.086419753086425  0 32.18855218855219  C 0 31.290684624017953  0.3142536475869812 30.527497194163857  0.9427609427609428 29.898989898989896  L 10.84175084175084 20  L 0.9427609427609428 10.1010101010101  C 0.3142536475869812 9.472502805836136  0 8.709315375982044  0 7.811447811447811  C 0 6.91358024691358  0.3142536475869812 6.150392817059478  0.9427609427609428 5.521885521885523  L 5.5218855218855225 0.9427609427609429  C 6.150392817059485 0.3142536475869795  6.913580246913581 0  7.811447811447811 0  C 8.709315375982044 0  9.47250280583614 0.3142536475869795  10.101010101010102 0.9427609427609429  L 20 10.841750841750844  L 29.8989898989899 0.9427609427609429  C 30.527497194163864 0.3142536475869795  31.290684624017963 0  32.18855218855219 0  C 33.08641975308642 0  33.849607182940524 0.3142536475869795  34.47811447811448 0.9427609427609429  L 39.05723905723906 5.521885521885523  C 39.68574635241302 6.150392817059478  40 6.91358024691358  40 7.811447811447811  C 40 8.709315375982044  39.68574635241302 9.472502805836136  39.05723905723906 10.1010101010101  L 29.158249158249156 20  L 39.05723905723906 29.898989898989896  Z " fill-rule="nonzero" fill="#ffffff" stroke="none" transform="matrix(1 0 0 1 23 30 )" />
  </g>
</svg>