<?xml version="1.0" encoding="utf-8"?>
<svg version="1.1" xmlns:xlink="http://www.w3.org/1999/xlink" width="40px" height="40px" xmlns="http://www.w3.org/2000/svg">
  <g transform="matrix(1 0 0 1 -307 -30 )">
    <path d="M 38.994565217391305 17.689345314505776  C 39.664855072463766 18.288403936670946  40 19.058622165169016  40 20  C 40 20.92426187419769  39.664855072463766 21.70303808301241  38.994565217391305 22.33632862644416  L 21.304347826086957 39.050064184852374  C 20.597826086956523 39.68335472828413  19.773550724637683 40  18.831521739130434 40  C 17.907608695652172 40  17.092391304347828 39.68335472828413  16.38586956521739 39.050064184852374  L 14.347826086956522 37.12451861360719  C 13.659420289855074 36.47411210954215  13.315217391304348 35.69533590072743  13.315217391304348 34.78818998716303  C 13.315217391304348 33.88104407359863  13.659420289855074 33.10226786478391  14.347826086956522 32.45186136071887  L 22.309782608695656 25  L 3.179347826086957 25  C 2.2373188405797104 24.92939666238768  1.4719202898550727 24.608472400513477  0.8831521739130435 23.966623876765084  C 0.29438405797101447 23.324775353016687  0 22.55027813436029  0 21.64313222079589  L 0 18.35686777920411  C 0 17.449721865639706  0.29438405797101447 16.675224646983313  0.8831521739130435 16.033376123234916  C 1.4719202898550727 15.39152759948652  2.2373188405797104 15.070603337612326  3.179347826086957 15  L 22.309782608695656 15  L 14.347826086956522 7.522464698331195  C 13.659420289855074 6.906290115532734  13.315217391304348 6.136071887034662  13.315217391304348 5.21181001283697  C 13.315217391304348 4.287548138639283  13.659420289855074 3.517329910141207  14.347826086956522 2.901155327342746  L 16.38586956521739 0.9756097560975618  C 17.074275362318843 0.32520325203251765  17.889492753623188 0  18.831521739130434 0  C 19.791666666666668 0  20.615942028985508 0.32520325203251765  21.304347826086957 0.9756097560975618  L 38.994565217391305 17.689345314505776  Z " fill-rule="nonzero" fill="#ffffff" stroke="none" transform="matrix(1 0 0 1 307 30 )" />
  </g>
</svg>