<?xml version="1.0" encoding="utf-8"?>
<svg version="1.1" xmlns:xlink="http://www.w3.org/1999/xlink" width="18px" height="18px" xmlns="http://www.w3.org/2000/svg">
  <g transform="matrix(1 0 0 1 -7 -11 )">
    <path d="M 12.83203125 2.314453124999999  C 11.643415178571429 1.771484374999999  10.366071428571427 1.5000000000000007  9 1.5000000000000007  C 7.633928571428571 1.5000000000000007  6.356584821428572 1.771484374999999  5.16796875 2.314453124999999  C 3.9793526785714284 2.857421875  3.0351562500000004 3.589843749999999  2.3353794642857144 4.511718749999999  C 1.6356026785714286 5.433593749999997  1.2857142857142856 6.429687499999999  1.2857142857142856 7.499999999999999  C 1.2857142857142856 8.375  1.5251116071428574 9.208984375  2.00390625 10.001953125  C 2.482700892857143 10.794921875  3.157366071428572 11.48046875  4.027901785714286 12.05859375  L 4.9017857142857135 12.644531249999998  L 4.630580357142858 13.76953125  C 4.469866071428571 14.48046875  4.235491071428571 15.15234375  3.9274553571428568 15.78515625  C 4.945312500000001 15.29296875  5.866071428571429 14.625  6.689732142857142 13.78125  L 7.1216517857142865 13.335937500000002  L 7.694196428571429 13.406250000000002  C 8.15625 13.46875  8.591517857142858 13.5  9 13.5  C 10.366071428571427 13.5  11.643415178571429 13.228515624999998  12.83203125 12.685546875000002  C 14.020647321428573 12.142578124999996  14.96484375 11.41015625  15.664620535714285 10.488281250000002  C 16.364397321428573 9.56640625  16.714285714285715 8.5703125  16.714285714285715 7.499999999999999  C 16.714285714285715 6.429687499999999  16.364397321428573 5.433593749999997  15.664620535714285 4.511718749999999  C 14.96484375 3.589843749999999  14.020647321428573 2.857421875  12.83203125 2.314453124999999  Z M 16.794642857142858 3.732421875000001  C 17.598214285714285 4.884765624999998  18 6.140625000000001  18 7.499999999999999  C 18 8.859375  17.598214285714285 10.115234374999998  16.794642857142858 11.267578125  C 15.991071428571427 12.419921874999998  14.899553571428573 13.330078124999998  13.520089285714285 13.998046875  C 12.140625000000002 14.666015625  10.633928571428571 15  9 15  C 8.53125 15  8.045758928571429 14.96875  7.5435267857142865 14.90625  C 6.217633928571429 16.2734375  4.677455357142858 17.21875  2.922991071428571 17.7421875  C 2.594866071428572 17.8515625  2.213169642857143 17.9375  1.7779017857142856 18  L 1.7276785714285716 18  C 1.6272321428571428 18  1.5368303571428572 17.958984375  1.4564732142857144 17.876953125  C 1.3761160714285716 17.794921875  1.3225446428571432 17.6875  1.2957589285714284 17.5546875  L 1.2957589285714284 17.54296875  C 1.275669642857143 17.51171875  1.2739955357142858 17.46484375  1.2907366071428572 17.40234375  C 1.3074776785714288 17.33984375  1.3141741071428574 17.30078125  1.3108258928571428 17.28515625  C 1.3074776785714288 17.26953125  1.3225446428571432 17.232421875  1.3560267857142856 17.173828125  L 1.4162946428571428 17.068359375  C 1.4162946428571428 17.068359375  1.439732142857143 17.03515625  1.4866071428571428 16.96875  C 1.5334821428571432 16.90234375  1.5602678571428574 16.8671875  1.5669642857142856 16.86328125  C 1.613839285714286 16.80078125  1.7176339285714284 16.666015625  1.8783482142857144 16.458984375  C 2.0390625 16.251953125  2.154575892857143 16.103515625  2.224888392857143 16.013671875  C 2.2952008928571432 15.923828124999998  2.3989955357142856 15.769531250000002  2.536272321428571 15.55078125  C 2.673549107142857 15.33203125  2.782366071428571 15.132812499999998  2.8627232142857144 14.953125  C 2.9430803571428568 14.7734375  3.0334821428571432 14.54296875  3.133928571428571 14.26171875  C 3.234375 13.98046875  3.3214285714285716 13.68359375  3.3950892857142856 13.371093750000002  C 2.34375 12.67578125  1.5150669642857142 11.81640625  0.9090401785714286 10.79296875  C 0.30301339285714285 9.769531249999996  0 8.671875  0 7.499999999999999  C 0 6.140625000000001  0.4017857142857143 4.884765624999998  1.2053571428571428 3.732421875000001  C 2.0089285714285716 2.580078124999999  3.1004464285714284 1.669921875  4.479910714285714 1.001953125  C 5.859375000000001 0.333984375  7.36607142857143 0  9 0  C 10.633928571428571 0  12.140625000000002 0.333984375  13.520089285714285 1.001953125  C 14.899553571428573 1.669921875  15.991071428571427 2.580078124999999  16.794642857142858 3.732421875000001  Z " fill-rule="nonzero" fill="#aaaaaa" stroke="none" transform="matrix(1 0 0 1 7 11 )" />
  </g>
</svg>