<?xml version="1.0" encoding="utf-8"?>
<svg version="1.1" xmlns:xlink="http://www.w3.org/1999/xlink" width="18px" height="18px" xmlns="http://www.w3.org/2000/svg">
  <g transform="matrix(1 0 0 1 -259 -12 )">
    <path d="M 17.036252091466814 0.11036789297658789  C 17.270496374790856 -0.030100334448162513  17.498047964305634 -0.023411371237461065  17.718906860011153 0.13043478260869623  C 17.939765755716678 0.290969899665551  18.030117122141665 0.5050167224080253  17.989960959286112 0.7725752508361212  L 15.419966536530955 16.183946488294314  C 15.386503067484663 16.37792642140468  15.27941996653653 16.528428093645484  15.09871723368656 16.63545150501672  C 15.005019520356944 16.68896321070234  14.901282766313441 16.71571906354515  14.787506971556052 16.71571906354515  C 14.71388733965421 16.71571906354515  14.633575013943112 16.698996655518393  14.546569994422756 16.665551839464882  L 9.255995538204127 14.508361204013378  L 6.264361405465699 17.789297658862875  C 6.143892916899051 17.929765886287626  5.986614612381484 18  5.792526491912994 18  C 5.69882877858338 18  5.62186279977691 17.986622073578594  5.561628555493586 17.959866220735787  C 5.4344673731176805 17.913043478260867  5.334076965978808 17.834448160535118  5.260457334076966 17.724080267558527  C 5.186837702175126 17.61371237458194  5.150027886224206 17.49163879598662  5.150027886224206 17.357859531772576  L 5.150027886224206 12.822742474916387  L 0.41160066926938094 10.88628762541806  C 0.16397099832682654 10.792642140468226  0.030117122141662022 10.608695652173912  0.01003904071388734 10.334448160535118  C -0.01003904071388734 10.073578595317723  0.09704406023424428 9.876254180602006  0.33128834355828224 9.74247491638796  L 17.036252091466814 0.11036789297658789  Z M 9.346346904629113 13.153846153846155  L 14.285554935861684 15.17056856187291  L 16.504182933630787 1.8963210702341144  L 2.1081985499163416 10.193979933110366  L 5.481316229782488 11.5685618729097  L 14.145008365867263 5.157190635451505  L 9.346346904629113 13.153846153846155  Z " fill-rule="nonzero" fill="#000000" stroke="none" transform="matrix(1 0 0 1 259 12 )" />
  </g>
</svg>