<?xml version="1.0" encoding="utf-8"?>
<svg version="1.1" xmlns:xlink="http://www.w3.org/1999/xlink" width="23px" height="22px" xmlns="http://www.w3.org/2000/svg">
  <g transform="matrix(1 0 0 1 -76 -707 )">
    <path d="M 22.542613636363637 8.4375  C 22.84753787878788 8.729166666666663  23 9.083333333333332  23 9.499999999999998  L 23 12.499999999999998  C 23 12.916666666666668  22.84753787878788 13.270833333333332  22.542613636363637 13.5625  C 22.237689393939394 13.854166666666664  21.867424242424242 14  21.43181818181818 14  L 14.636363636363637 14  L 14.636363636363637 20.5  C 14.636363636363637 20.916666666666668  14.483901515151516 21.270833333333332  14.178977272727272 21.5625  C 13.874053030303035 21.854166666666668  13.503787878787879 22  13.06818181818182 22  L 9.931818181818182 22  C 9.496212121212121 22  9.12594696969697 21.854166666666668  8.821022727272728 21.5625  C 8.516098484848486 21.270833333333332  8.363636363636363 20.916666666666668  8.363636363636363 20.5  L 8.363636363636363 14  L 1.5681818181818181 14  C 1.1325757575757578 14  0.7623106060606062 13.854166666666664  0.45738636363636365 13.5625  C 0.1524621212121212 13.270833333333332  0 12.916666666666668  0 12.499999999999998  L 0 9.499999999999998  C 0 9.083333333333332  0.1524621212121212 8.729166666666663  0.45738636363636365 8.4375  C 0.7623106060606062 8.145833333333332  1.1325757575757578 8  1.5681818181818181 8  L 8.363636363636363 8  L 8.363636363636363 1.500000000000001  C 8.363636363636363 1.0833333333333324  8.516098484848486 0.7291666666666654  8.821022727272728 0.4375000000000002  C 9.12594696969697 0.1458333333333326  9.496212121212121 0  9.931818181818182 0  L 13.06818181818182 0  C 13.503787878787879 0  13.874053030303035 0.1458333333333326  14.178977272727272 0.4375000000000002  C 14.483901515151516 0.7291666666666654  14.636363636363637 1.0833333333333324  14.636363636363637 1.500000000000001  L 14.636363636363637 8  L 21.43181818181818 8  C 21.867424242424242 8  22.237689393939394 8.145833333333332  22.542613636363637 8.4375  Z " fill-rule="nonzero" fill="#98fb98" stroke="none" transform="matrix(1 0 0 1 76 707 )" />
  </g>
</svg>