<?xml version="1.0" encoding="utf-8"?>
<svg version="1.1" xmlns:xlink="http://www.w3.org/1999/xlink" width="19px" height="19px" xmlns="http://www.w3.org/2000/svg">
  <g>
    <path d="M 13.544921875 2.443033854166666  C 12.290271577380953 1.8699001736111098  10.941964285714285 1.583333333333334  9.5 1.583333333333334  C 8.058035714285714 1.583333333333334  6.709728422619048 1.8699001736111098  5.455078125 2.443033854166666  C 4.2004278273809526 3.016167534722222  3.203776041666667 3.789279513888888  2.465122767857143 4.762369791666666  C 1.726469494047619 5.735460069444442  1.357142857142857 6.78689236111111  1.357142857142857 7.916666666666666  C 1.357142857142857 8.840277777777779  1.6098400297619049 9.720594618055555  2.115234375 10.5576171875  C 2.6206287202380953 11.394639756944445  3.3327752976190483 12.118272569444445  4.251674107142857 12.728515625  L 5.174107142857142 13.347005208333332  L 4.887834821428572 14.534505208333334  C 4.718191964285714 15.284939236111112  4.470796130952381 15.994140625  4.145647321428571 16.662109375  C 5.220052083333334 16.142578125  6.191964285714286 15.4375  7.061383928571428 14.546875  L 7.517299107142858 14.076822916666668  L 8.121651785714286 14.151041666666668  C 8.609375 14.217013888888888  9.068824404761905 14.25  9.5 14.25  C 10.941964285714285 14.25  12.290271577380953 13.96343315972222  13.544921875 13.390299479166668  C 14.79957217261905 12.817165798611107  15.796223958333334 12.044053819444445  16.534877232142858 11.070963541666668  C 17.27353050595238 10.097873263888888  17.642857142857142 9.046440972222221  17.642857142857142 7.916666666666666  C 17.642857142857142 6.78689236111111  17.27353050595238 5.735460069444442  16.534877232142858 4.762369791666666  C 15.796223958333334 3.789279513888888  14.79957217261905 3.016167534722222  13.544921875 2.443033854166666  Z M 17.727678571428573 3.939778645833334  C 18.575892857142858 5.156141493055554  19 6.481770833333334  19 7.916666666666666  C 19 9.3515625  18.575892857142858 10.677191840277775  17.727678571428573 11.8935546875  C 16.879464285714285 13.10991753472222  15.72730654761905 14.070638020833332  14.271205357142856 14.775716145833334  C 12.815104166666668 15.480794270833334  11.224702380952381 15.833333333333334  9.5 15.833333333333334  C 9.005208333333334 15.833333333333334  8.492745535714286 15.800347222222221  7.962611607142858 15.734375  C 6.563058035714286 17.17751736111111  4.937313988095239 18.17534722222222  3.085379464285714 18.727864583333336  C 2.7390252976190483 18.84331597222222  2.336123511904762 18.93402777777778  1.876674107142857 19  L 1.8236607142857144 19  C 1.7176339285714286 19  1.6222098214285714 18.956705729166664  1.537388392857143 18.8701171875  C 1.4525669642857144 18.783528645833336  1.3960193452380956 18.67013888888889  1.3677455357142856 18.529947916666664  L 1.3677455357142856 18.517578125  C 1.3465401785714288 18.48459201388889  1.3447730654761907 18.435112847222225  1.3624441964285714 18.369140625  C 1.3801153273809526 18.30316840277778  1.3871837797619049 18.26193576388889  1.3836495535714286 18.245442708333336  C 1.3801153273809526 18.22894965277778  1.3960193452380956 18.189778645833336  1.431361607142857 18.1279296875  L 1.4949776785714286 18.0166015625  C 1.4949776785714286 18.0166015625  1.519717261904762 17.981553819444446  1.5691964285714286 17.911458333333336  C 1.6186755952380956 17.84136284722222  1.6469494047619049 17.80425347222222  1.654017857142857 17.800130208333336  C 1.7034970238095242 17.73415798611111  1.8130580357142856 17.591905381944446  1.982700892857143 17.373372395833336  C 2.15234375 17.15483940972222  2.2742745535714284 16.998155381944446  2.3484933035714284 16.9033203125  C 2.422712053571429 16.808485243055554  2.5322730654761907 16.645616319444446  2.677176339285714 16.414713541666664  C 2.822079613095238 16.18381076388889  2.936941964285714 15.973524305555554  3.021763392857143 15.783854166666666  C 3.106584821428571 15.594184027777779  3.202008928571429 15.350911458333334  3.308035714285714 15.054036458333334  C 3.4140625 14.757161458333334  3.5059523809523814 14.443793402777779  3.583705357142857 14.113932291666668  C 2.4739583333333335 13.379991319444445  1.5992373511904763 12.472873263888888  0.9595424107142857 11.392578125  C 0.31984747023809523 10.312282986111107  0 9.153645833333334  0 7.916666666666666  C 0 6.481770833333334  0.42410714285714285 5.156141493055554  1.2723214285714286 3.939778645833334  C 2.120535714285715 2.72341579861111  3.2726934523809526 1.7626953125  4.728794642857143 1.0576171875  C 6.184895833333334 0.3525390625  7.7752976190476195 0  9.5 0  C 11.224702380952381 0  12.815104166666668 0.3525390625  14.271205357142856 1.0576171875  C 15.72730654761905 1.7626953125  16.879464285714285 2.72341579861111  17.727678571428573 3.939778645833334  Z " fill-rule="nonzero" fill="#000000" stroke="none" />
  </g>
</svg>