<?xml version="1.0" encoding="utf-8"?>
<svg version="1.1" xmlns:xlink="http://www.w3.org/1999/xlink" width="319px" height="256px" xmlns="http://www.w3.org/2000/svg">
  <g transform="matrix(1 0 0 1 -485 -288 )">
    <path d="M 485 288  L 804 288  L 804 544  L 485 544  L 485 288  " fill-rule="nonzero" fill="#cccccc" stroke="none" />
    <path d="M 503 306  L 786 306  L 786 526  L 503 526  L 503 306  " fill-rule="nonzero" fill="#ffffff" stroke="none" />
    <path d="M 670.0799999999999 364.79999999999995  C 659.328 364.79999999999995  650.88 356.352  650.88 345.59999999999997  C 650.88 334.84799999999996  659.328 326.4  670.0799999999999 326.4  C 680.832 326.4  689.28 334.84799999999996  689.28 345.59999999999997  C 689.28 356.352  680.832 364.79999999999995  670.0799999999999 364.79999999999995  " fill-rule="nonzero" fill="#cccccc" stroke="none" />
    <path d="M 510 520  L 510 406.15  L 577.5 354.4  L 672 420.328526645768  L 726 385.45  L 780 420.328526645768  L 780 520  L 510 520  " fill-rule="nonzero" fill="#169bd5" stroke="none" />
    <path d="M 486 543  L 486 289  L 803 289  L 803 543  L 486 543  Z " stroke-width="2" stroke="#98fb98" fill="none" />
  </g>
</svg>