<?xml version="1.0" encoding="utf-8"?>
<svg version="1.1" xmlns:xlink="http://www.w3.org/1999/xlink" width="19px" height="19px" xmlns="http://www.w3.org/2000/svg">
  <g>
    <path d="M 18.798549107142858 6.305625000000001  C 18.932849702380953 6.456041666666666  19 6.634166666666665  19 6.84  C 19 7.045833333333332  18.932849702380953 7.223958333333332  18.798549107142858 7.374375000000001  L 13.369977678571429 13.454375  C 13.235677083333334 13.604791666666666  13.076636904761905 13.68  12.892857142857144 13.68  C 12.709077380952381 13.68  12.550037202380953 13.604791666666666  12.415736607142856 13.454375  C 12.281436011904765 13.303958333333334  12.214285714285715 13.125833333333333  12.214285714285715 12.919999999999998  L 12.214285714285715 9.88  L 9.839285714285715 9.88  C 9.146577380952381 9.88  8.52632068452381 9.90375  7.978515625 9.951249999999998  C 7.430710565476191 9.99875  6.886439732142858 10.083854166666667  6.345703125 10.206562499999999  C 5.804966517857142 10.329270833333332  5.33491443452381 10.4975  4.935546875 10.71125  C 4.536179315476191 10.924999999999999  4.1633184523809526 11.200104166666666  3.816964285714286 11.5365625  C 3.4706101190476195 11.873020833333332  3.187872023809524 12.2728125  2.96875 12.7359375  C 2.7496279761904763 13.1990625  2.5782180059523814 13.747291666666664  2.454520089285714 14.380624999999998  C 2.3308221726190474 15.013958333333333  2.2689732142857144 15.730416666666668  2.2689732142857144 16.53  C 2.2689732142857144 16.965416666666666  2.2866443452380953 17.452291666666667  2.321986607142857 17.990625  C 2.321986607142857 18.038125  2.330822172619048 18.13114583333333  2.3484933035714284 18.2696875  C 2.3661644345238098 18.40822916666667  2.375 18.513125  2.375 18.584375  C 2.375 18.703125  2.3449590773809526 18.802083333333332  2.284877232142857 18.88125  C 2.2247953869047623 18.960416666666667  2.1417410714285716 19  2.0357142857142856 19  C 1.9226190476190477 19  1.8236607142857144 18.932708333333334  1.7388392857142856 18.798125  C 1.689360119047619 18.726875  1.6434151785714286 18.639791666666667  1.6010044642857144 18.536875  C 1.55859375 18.433958333333333  1.5108816964285714 18.31520833333333  1.4578683035714286 18.180625  C 1.4048549107142856 18.046041666666667  1.3677455357142856 17.95104166666667  1.3465401785714286 17.895625  C 0.4488467261904761 15.639375  0 13.854166666666664  0 12.54  C 0 10.964583333333332  0.18731398809523805 9.646458333333332  0.5619419642857143 8.585625  C 1.70703125 5.395208333333333  4.799479166666666 3.799999999999999  9.839285714285715 3.799999999999999  L 12.214285714285715 3.799999999999999  L 12.214285714285715 0.7600000000000007  C 12.214285714285715 0.5541666666666647  12.281436011904765 0.3760416666666643  12.415736607142856 0.2256249999999994  C 12.550037202380953 0.07520833333333243  12.709077380952381 0  12.892857142857144 0  C 13.076636904761905 0  13.235677083333334 0.07520833333333243  13.369977678571429 0.2256249999999994  L 18.798549107142858 6.305625000000001  Z " fill-rule="nonzero" fill="#000000" stroke="none" />
  </g>
</svg>