<?xml version="1.0" encoding="utf-8"?>
<svg version="1.1" xmlns:xlink="http://www.w3.org/1999/xlink" width="47px" height="47px" xmlns="http://www.w3.org/2000/svg">
  <g transform="matrix(1 0 0 1 -45 -61 )">
    <path d="M 26.651692708333332 32.098307291666664  C 26.835286458333332 32.281901041666664  26.927083333333332 32.51649305555555  26.927083333333332 32.802083333333336  L 26.927083333333332 37.69791666666667  C 26.927083333333332 37.98350694444444  26.835286458333332 38.21809895833333  26.651692708333332 38.40169270833333  C 26.468098958333332 38.58528645833333  26.233506944444443 38.67708333333333  25.947916666666668 38.67708333333333  L 21.052083333333336 38.67708333333333  C 20.766493055555557 38.67708333333333  20.531901041666664 38.58528645833333  20.348307291666664 38.40169270833333  C 20.164713541666664 38.21809895833333  20.072916666666664 37.98350694444444  20.072916666666664 37.69791666666667  L 20.072916666666664 32.802083333333336  C 20.072916666666664 32.51649305555555  20.164713541666664 32.281901041666664  20.348307291666664 32.098307291666664  C 20.531901041666664 31.914713541666664  20.766493055555557 31.822916666666664  21.052083333333336 31.822916666666664  L 25.947916666666668 31.822916666666664  C 26.233506944444443 31.822916666666664  26.468098958333332 31.914713541666664  26.651692708333332 32.098307291666664  Z M 31.409830729166668 11.0615234375  C 33.6435546875 12.88726128472222  34.76041666666667 15.07508680555555  34.76041666666667 17.625  C 34.76041666666667 18.644965277777775  34.607421875 19.562934027777775  34.30143229166667 20.37890625  C 33.99544270833333 21.194878472222218  33.53135850694445 21.89865451388889  32.9091796875 22.490234375  C 32.28700086805556 23.081814236111107  31.756618923611118 23.530598958333336  31.318033854166668 23.836588541666664  C 30.879448784722225 24.142578125  30.27256944444445 24.509765625  29.497395833333332 24.938151041666664  C 28.844618055555557 25.305338541666664  28.370334201388893 25.59092881944444  28.074544270833332 25.794921875  C 27.778754340277782 25.99891493055555  27.513563368055557 26.243706597222225  27.278971354166668 26.529296875  C 27.044379340277782 26.814887152777775  26.927083333333332 27.110677083333336  26.927083333333332 27.416666666666664  L 26.927083333333332 28.395833333333336  C 26.927083333333332 28.68142361111111  26.835286458333332 28.916015625  26.651692708333332 29.099609375  C 26.468098958333332 29.283203125  26.233506944444443 29.375  25.947916666666668 29.375  L 21.052083333333336 29.375  C 20.766493055555557 29.375  20.531901041666664 29.283203125  20.348307291666664 29.099609375  C 20.164713541666664 28.916015625  20.072916666666664 28.68142361111111  20.072916666666664 28.395833333333336  L 20.072916666666664 26.315104166666664  C 20.072916666666664 25.601128472222225  20.180013020833336 24.94325086805555  20.394205729166664 24.341471354166664  C 20.6083984375 23.739691840277775  20.853190104166664 23.255208333333332  21.128580729166664 22.888020833333332  C 21.403971354166664 22.520833333333332  21.8017578125 22.158745659722218  22.321940104166664 21.8017578125  C 22.842122395833336 21.444769965277775  23.260308159722225 21.184678819444443  23.576497395833332 21.021484375  C 23.89268663194445 20.858289930555557  24.346571180555557 20.644097222222218  24.938151041666668 20.37890625  C 26.01931423611111 19.868923611111107  26.784288194444443 19.430338541666668  27.233072916666668 19.063151041666668  C 27.681857638888893 18.695963541666668  27.906250000000004 18.196180555555557  27.90625 17.563802083333332  C 27.906250000000004 16.707031249999996  27.462565104166668 15.977756076388882  26.5751953125 15.3759765625  C 25.687825520833336 14.774197048611107  24.713758680555557 14.473307291666668  23.652994791666668 14.473307291666668  C 22.510633680555557 14.473307291666668  21.541666666666664 14.748697916666668  20.74609375 15.299479166666668  C 20.15451388888889 15.707465277777775  19.338541666666664 16.554036458333332  18.298177083333336 17.839192708333332  C 18.114583333333336 18.083984374999996  17.85959201388889 18.206380208333332  17.533203125 18.206380208333332  C 17.30881076388889 18.206380208333332  17.11501736111111 18.145182291666664  16.951822916666664 18.022786458333332  L 13.647135416666666 15.513671875  C 13.443142361111112 15.370876736111107  13.320746527777779 15.16688368055555  13.279947916666666 14.901692708333332  C 13.239149305555559 14.636501736111107  13.290147569444446 14.40190972222222  13.432942708333334 14.197916666666668  C 15.921657986111112 10.28125  19.481336805555557 8.322916666666668  24.111979166666668 8.322916666666668  C 26.743489583333332 8.322916666666668  29.176106770833332 9.235785590277775  31.409830729166668 11.0615234375  Z M 31.103841145833332 5.477213541666669  C 28.6865234375 4.436848958333331  26.151909722222225 3.9166666666666683  23.5 3.9166666666666683  C 20.84809027777778 3.9166666666666683  18.3134765625 4.436848958333331  15.896158854166666 5.477213541666669  C 13.478841145833334 6.517578125  11.398111979166668 7.909830729166669  9.653971354166668 9.653971354166668  C 7.909830729166667 11.398111979166668  6.517578125 13.478841145833332  5.477213541666666 15.896158854166668  C 4.436848958333334 18.3134765625  3.9166666666666665 20.848090277777775  3.9166666666666665 23.5  C 3.9166666666666665 26.151909722222225  4.436848958333334 28.6865234375  5.477213541666666 31.103841145833336  C 6.517578125 33.521158854166664  7.909830729166667 35.60188802083333  9.653971354166668 37.34602864583333  C 11.398111979166668 39.09016927083333  13.478841145833334 40.482421875  15.896158854166666 41.52278645833333  C 18.3134765625 42.56315104166667  20.84809027777778 43.08333333333333  23.5 43.08333333333333  C 26.151909722222225 43.08333333333333  28.6865234375 42.56315104166667  31.103841145833332 41.52278645833333  C 33.52115885416667 40.482421875  35.60188802083333 39.09016927083333  37.34602864583333 37.34602864583333  C 39.09016927083333 35.60188802083333  40.482421875 33.521158854166664  41.52278645833333 31.103841145833336  C 42.56315104166667 28.6865234375  43.08333333333333 26.151909722222225  43.08333333333333 23.5  C 43.08333333333333 20.848090277777775  42.56315104166667 18.3134765625  41.52278645833333 15.896158854166668  C 40.482421875 13.478841145833332  39.09016927083333 11.398111979166668  37.34602864583333 9.653971354166668  C 35.60188802083333 7.909830729166669  33.52115885416667 6.517578125  31.103841145833332 5.477213541666669  Z M 43.84830729166667 11.7041015625  C 45.949435763888886 15.30457899305555  47 19.236545138888882  47 23.5  C 47 27.76345486111111  45.949435763888886 31.69542100694444  43.84830729166667 35.2958984375  C 41.74717881944445 38.89637586805556  38.89637586805556 41.74717881944444  35.2958984375 43.84830729166667  C 31.69542100694445 45.94943576388889  27.76345486111111 47  23.5 47  C 19.23654513888889 47  15.304578993055555 45.94943576388889  11.7041015625 43.84830729166667  C 8.103624131944445 41.74717881944444  5.252821180555556 38.89637586805556  3.1516927083333335 35.2958984375  C 1.050564236111111 31.69542100694444  0 27.76345486111111  0 23.5  C 0 19.236545138888882  1.050564236111111 15.30457899305555  3.1516927083333335 11.7041015625  C 5.252821180555556 8.103624131944445  8.103624131944445 5.252821180555551  11.7041015625 3.1516927083333317  C 15.304578993055555 1.0505642361111072  19.23654513888889 0  23.5 0  C 27.76345486111111 0  31.69542100694445 1.0505642361111072  35.2958984375 3.1516927083333317  C 38.89637586805556 5.252821180555551  41.74717881944445 8.103624131944445  43.84830729166667 11.7041015625  Z " fill-rule="nonzero" fill="#95f797" stroke="none" transform="matrix(1 0 0 1 45 61 )" />
  </g>
</svg>