<?xml version="1.0" encoding="utf-8"?>
<svg version="1.1" xmlns:xlink="http://www.w3.org/1999/xlink" width="43px" height="43px" xmlns="http://www.w3.org/2000/svg">
  <g transform="matrix(1 0 0 1 -20 -14 )">
    <path d="M 35.44140625 18.224609375  C 35.77734375 17.888671875  35.9453125 17.46875  35.9453125 16.96484375  C 35.9453125 16.442274305555554  35.77734375 16.013020833333336  35.44140625 15.677083333333336  L 32.893880208333336 13.157552083333336  C 32.53927951388889 12.802951388888886  32.11935763888889 12.625651041666664  31.634114583333336 12.625651041666664  C 31.14887152777778 12.625651041666664  30.72894965277778 12.802951388888886  30.374348958333336 13.157552083333336  L 18.952473958333332 24.55143229166667  L 12.625651041666668 18.224609375  C 12.271050347222223 17.870008680555554  11.851128472222223 17.692708333333336  11.365885416666668 17.692708333333336  C 10.880642361111112 17.692708333333336  10.46072048611111 17.870008680555554  10.106119791666666 18.224609375  L 7.55859375 20.744140625  C 7.22265625 21.080078125  7.054687500000001 21.50933159722222  7.0546875 22.03190104166667  C 7.054687500000001 22.53580729166667  7.22265625 22.95572916666667  7.55859375 23.29166666666667  L 17.692708333333332 33.42578125  C 18.04730902777778 33.78038194444444  18.46723090277778 33.957682291666664  18.952473958333332 33.957682291666664  C 19.456380208333332 33.957682291666664  19.885633680555557 33.78038194444444  20.240234375 33.42578125  L 35.44140625 18.224609375  Z M 40.116536458333336 10.7080078125  C 42.03884548611111 14.00206163194444  43 17.599392361111104  43 21.5  C 43 25.40060763888889  42.03884548611111 28.99793836805555  40.116536458333336 32.2919921875  C 38.19422743055556 35.58604600694444  35.58604600694444 38.19422743055556  32.2919921875 40.116536458333336  C 28.99793836805556 42.038845486111114  25.40060763888889 43  21.5 43  C 17.59939236111111 43  14.002061631944445 42.038845486111114  10.7080078125 40.116536458333336  C 7.413953993055556 38.19422743055556  4.805772569444445 35.58604600694444  2.883463541666667 32.2919921875  C 0.9611545138888887 28.99793836805555  0 25.40060763888889  0 21.5  C 0 17.599392361111104  0.9611545138888887 14.00206163194444  2.883463541666667 10.7080078125  C 4.805772569444445 7.413953993055555  7.413953993055556 4.80577256944444  10.7080078125 2.883463541666665  C 14.002061631944445 0.9611545138888852  17.59939236111111 0  21.5 0  C 25.40060763888889 0  28.99793836805556 0.9611545138888852  32.2919921875 2.883463541666665  C 35.58604600694444 4.80577256944444  38.19422743055556 7.413953993055555  40.116536458333336 10.7080078125  Z " fill-rule="nonzero" fill="#95f797" stroke="none" transform="matrix(1 0 0 1 20 14 )" />
  </g>
</svg>